<svg xmlns="http://www.w3.org/2000/svg" width="16" height="16" viewBox="0 0 16 16">
  <g id="favicon" transform="translate(-376 111)">
    <g id="Group_995" data-name="Group 995" transform="translate(156 122.566)">
      <path id="Path_5057" data-name="Path 5057" d="M40.03,0a2.088,2.088,0,0,1,2.189,1.964,2.1,2.1,0,0,1-4.191.184A2.074,2.074,0,0,1,40.03,0" transform="translate(186.744 -232.566)" fill="#f38200"/>
      <path id="Path_5058" data-name="Path 5058" d="M56.6,36.122c.009.088.081.044.089.123,0,.026-.018.053-.036.044-.054-.053-.116-.026-.17-.07a.191.191,0,0,1-.116-.184c-.045-.018-.116-.105-.152-.018-.045,0-.089-.044-.116-.1a.421.421,0,0,0-.188-.044c-.045,0-.116-.131-.152-.009-.027.017-.063-.018-.081-.053,0-.061-.232-.14-.232-.193.009-.018.027,0,.036-.018-.018-.035-.036-.061-.071-.061-.027-.018-.071-.061-.054-.1a1.335,1.335,0,0,1,.429.158c.009.018-.009.026-.018.035.072.088.161.079.25.105a2.215,2.215,0,0,0,.4.21c.054-.026-.018-.053-.018-.1.045-.079.08.149.134.105.1.061.018.061.107.061-.179-.359-.223-.21-.456-.465-.1-.017-.143-.158-.205-.245-.063.009-.134-.149-.188-.088-.071.035-.17-.035-.224-.123-.08,0-.08-.105-.152-.088a.735.735,0,0,1-.161-.088c-.036-.026-.063-.061-.1-.088a.491.491,0,0,1-.277-.088c-.009,0-.009-.009-.018-.009-.027-.123-.107-.018-.152-.079-.062.018-.125-.026-.188-.044a.181.181,0,0,0-.1-.009,1.866,1.866,0,0,0-.411-.132.952.952,0,0,1-.152-.035c-.116.044-.054-.21-.179-.14-.009.018-.009.061-.027.061h-.009a.179.179,0,0,1-.054-.079,3.456,3.456,0,0,0-.366-.009c-.214-.009-.438-.018-.474-.07-.063,0,.465-.105.429-.184a.069.069,0,0,1,.045-.018c.071-.018.152.026.232.018.036-.018,0-.07.027-.1.054-.044.089.035.143.079a.033.033,0,0,0,.027.009c.018-.009.036-.044.054-.053a.592.592,0,0,1,.3.017c.107.026.223.079.331.114.054.105.116.123.179.114a.553.553,0,0,1,.17.009c.027.017.071.053.054.1.08.088,0-.061.063-.053.027.009.045.018.071.026a2.224,2.224,0,0,1,.375.149l.1.07c.009-.018-.027-.07-.1-.123a2.109,2.109,0,0,0-.375-.237c-.009,0-.009,0-.018-.009a.839.839,0,0,0-.34-.175.53.53,0,0,0-.071-.035c-.063-.026-.143.009-.205-.053-.089-.07-.152-.009-.232-.018a.168.168,0,0,1-.089-.044c-.063.018-.116-.053-.179-.044a.239.239,0,0,0-.089-.053c-.107-.017-.214.07-.322-.061a.443.443,0,0,1-.107.009,3.208,3.208,0,0,0-.411,0c-.071.07-.161.009-.241-.018a.6.6,0,0,1-.125.009.671.671,0,0,0-.295.009.247.247,0,0,1-.25.088.365.365,0,0,0-.313.035c-.429.009-.384.1-.751.219-.179.088-.322.272-.536.245v-.009c.179-.245.474-.245.688-.412.331-.219.357-.149.751-.237.045-.044.107-.044.161-.07.009,0,.009-.009.018-.018a.066.066,0,0,0-.018-.035,1,1,0,0,0-.357.009c-2.824.754-4.54,2.762-4.745,4.778V39.1c.2,1.867,1.787,3.612,5.1,4.182a5.425,5.425,0,0,0,.545.079q.375.053.777.079l.429.026c.116,0,.241.009.357.009.081,0,.161.009.25.009-.089-.053-.17-.1-.25-.14-.125-.07-.241-.14-.357-.21-.152-.088-.295-.184-.429-.272-.286-.184-.536-.368-.777-.552-.2-.158-.375-.307-.545-.456-2.511-2.279-1.859-4.48,0-5.462a5.068,5.068,0,0,1,.545-.237,4.376,4.376,0,0,1,.777-.2c.143-.026.286-.044.429-.061.116-.009.241-.018.357-.018a4.965,4.965,0,0,1,.509.009c.125.009.241.018.357.035s.25.035.375.061a6.321,6.321,0,0,1,1.653.579c.116-.035-.259-.421-.313-.438m-4.566-1.973-.125.018-.331.044c.054-.14.25.044.25-.158-.027-.017-.1-.017-.107-.053a.317.317,0,0,1,.188-.035,1.972,1.972,0,0,1,.322.026c-.063.114-.1.079-.2.158m.42-.035a.614.614,0,0,0-.125-.018.57.57,0,0,1,.125-.07.591.591,0,0,1,.456-.044l.018.035c-.063.131-.214.1-.313.114a.338.338,0,0,1-.161-.017M55.26,35.5c-.054-.009-.134-.026-.116.061-.089-.009-.089-.158-.188-.158-.027-.009-.045-.018-.071-.026-.116-.026-.232-.053-.357-.079-.071-.026-.152-.053-.232-.079.009-.07.08-.088.143-.1a.239.239,0,0,0,.089.053.377.377,0,0,0,.134.018c.08.035.152.07.223.1.125.044.241.079.375.131a.009.009,0,0,1,.009.009l.018.061a.033.033,0,0,1-.027.009" transform="translate(179.065 -261.83)" fill="#20992a"/>
      <path id="Path_5059" data-name="Path 5059" d="M5.5,19.977c.894-3.366-1.957-5.435-5.5-6.33,5.344,4.664-1.314,11.16,9.177,12.423-.6-.184-4.834-1.771-3.682-6.093" transform="translate(220 -244.501)" fill="#8cc42a"/>
    </g>
    <rect id="Rectangle_830" data-name="Rectangle 830" width="16" height="16" transform="translate(376 -111)" fill="none"/>
  </g>
</svg>
