<svg xmlns="http://www.w3.org/2000/svg" xmlns:xlink="http://www.w3.org/1999/xlink" width="630" height="630" viewBox="0 0 630 630">
  <defs>
    <clipPath id="clip-path">
      <rect id="Rectangle_34" data-name="Rectangle 34" width="329.727" height="97.733" fill="none"/>
    </clipPath>
    <clipPath id="clip-fb-img">
      <rect width="630" height="630"/>
    </clipPath>
  </defs>
  <g id="fb-img" clip-path="url(#clip-fb-img)">
    <rect width="630" height="630" fill="#e9e4cd"/>
    <g id="Group_995" data-name="Group 995" transform="translate(0 -23.717)">
      <path id="Path_4993" data-name="Path 4993" d="M-229.08-31h-4.554v-1.84h4.554Zm0,4.968h-4.554v-1.84h4.554Zm-23.966-1.84h4.278v1.84h-4.278Zm0-4.968h4.278V-31h-4.278Zm14.03,4.968v1.84h-4.416v-1.84Zm0-4.968V-31h-4.416v-1.84Zm15.18-3.312h-9.8v-2.806h-5.382v2.806h-4.416v-2.806h-5.336v2.806h-9.292v13.478h34.224Zm-3.91,29.026a45.361,45.361,0,0,1-5.7,2.668,11.413,11.413,0,0,1-3.036-2.668Zm3.266,0h3.68v-3.864h-32.522c0-.552.046-1.058.092-1.564h29.486v-3.4h-29.44v-1.426H-222v-3.864h-36.386v5.934c0,4.784-.46,11.684-4.462,16.606a25.58,25.58,0,0,1,4.6,2.806A24.952,24.952,0,0,0-253.828-7.13h2.9v3.91A3.193,3.193,0,0,1-252.816.046a13.223,13.223,0,0,1,1.564,4.278c.966-.552,2.53-.874,12.374-3.036a32.422,32.422,0,0,1,0-4.232l-6.946,1.334V-7.13h4.14c3.542,6.3,9.522,9.752,19.044,11.04a17.491,17.491,0,0,1,2.806-4.324A37.594,37.594,0,0,1-229.218-2.3c2.3-.736,4.784-1.748,7.222-2.714Zm44.574-25.9h-11.868v-1.61h11.868Zm0,4.37h-11.868v-1.61h11.868Zm5.014-8.878h-21.666V-25.76h21.666Zm-23.782,17.02h26.588v-3.772h-26.588Zm-2.714-15.364a66.774,66.774,0,0,1-2.622,9.614l2.99,1.1c1.15-2.3,2.392-6.21,3.68-9.43Zm-7.912,9.752a76.785,76.785,0,0,0-2.162-9.706l-3.4.782a76.044,76.044,0,0,1,1.978,9.844Zm16.7,15.916v-1.794h4.324v1.794Zm0-6.164h4.324v1.794H-192.6Zm13.432,1.794h-4.324v-1.794h4.324Zm0,4.37h-4.324v-1.794h4.324ZM-183.494-.46V-2.346h10.12V-5.8h-10.12V-7.5h9.108V-19.044h-22.862v8.878c-.828-1.334-3.818-5.566-4.738-6.578l-2.254,1.7V-18.63h4.738v-5.106h-4.738V-38.962h-4.738v15.226h-5.52v5.106h5.52v2.668l-2.852-.92a26.912,26.912,0,0,1-3.542,10.074,32.749,32.749,0,0,1,2.208,5.658c1.932-2.53,3.358-7.038,4.186-11.316V4h4.738V-13.8a62.961,62.961,0,0,1,3.588,7.682l3.4-3.818V-7.5h8.97v1.7H-197.8v3.45h9.522V-.46h-11.546V3.312h27.968V-.46Zm53.176-22.08H-139.2v-2.806h8.878Zm0,6.624H-139.2v-2.852h8.878Zm0,6.624H-139.2v-2.852h8.878Zm-13.8-20.148V-5.2h18.952V-29.44h-8.1q.552-1.449,1.1-3.036h8.372v-4.692H-145.5v4.692h7.59c-.184,1.012-.414,2.024-.644,3.036Zm-6.348-7.682a47.8,47.8,0,0,1-2.07,5.934l3.5,1.15c.874-1.518,1.932-3.726,3.082-5.934Zm-8.648,5.336a18.671,18.671,0,0,0-2.484-5.52l-3.68,1.334a21.78,21.78,0,0,1,2.3,5.7Zm1.15,14.95h4.738v-4.692a66.852,66.852,0,0,1,5.428,5.382l2.9-3.45c-.966-.736-4.784-3.5-6.026-4.232l-2.3,1.7v-2.76h7.452V-29.21h-7.452v-9.43h-4.738v9.43h-7.958v4.324h7.958Zm-3.588-7.13a15.376,15.376,0,0,1-5.382,5.75,14.824,14.824,0,0,1,3.128,3.4,19.828,19.828,0,0,0,5.52-7.958ZM-146.326-1.61a68.809,68.809,0,0,0-7.82-4.922,10.953,10.953,0,0,0,.23-1.2h8.326v-4.508h-2.162l1.518-1.1a17.68,17.68,0,0,0-3.312-3.45l-2.944,1.978a25.561,25.561,0,0,1,2.392,2.576h-3.542v-3.68h-4.692v3.68h-7.5v4.508h7.084c-.782,2.714-2.806,5.52-8.1,7.5a15.929,15.929,0,0,1,2.76,3.91c4.14-1.656,6.716-3.864,8.188-6.21a60.619,60.619,0,0,1,6.624,4.692Zm6.624-3.358a25.208,25.208,0,0,1-7.59,5.75c1.1.966,2.622,2.484,3.5,3.45a30.269,30.269,0,0,0,8.556-6.348Zm5.52,2.76a59.611,59.611,0,0,1,7.36,6.256l4.14-2.944a57.322,57.322,0,0,0-7.636-5.98Zm30.176-6.164c.552-.782,1.058-1.564,1.564-2.392h7.5v2.392Zm.644-14.674c3.22-.69,6.578-1.472,9.89-2.346,2.9.782,5.658,1.564,7.912,2.346ZM-87.124-31a45.824,45.824,0,0,1-6.026,2.07c-3.036-.736-6.072-1.426-8.97-2.07ZM-89.562-1.518V-4.186h10.028V-8.372H-89.562v-2.392H-78.2v-4.278H-89.562v-2.806h-5.382v2.806h-5.336c.276-.644.506-1.242.736-1.84l-4.646-1.38a22.567,22.567,0,0,1-5.244,8.28,45.612,45.612,0,0,0,.23-4.83v-3.864h33.4v-4.37H-82.57l2.576-2.116c-2.07-.69-4.554-1.426-7.268-2.162,2.07-.736,4-1.518,5.658-2.3L-83.812-31h6.67v-4.278H-93.058a27.245,27.245,0,0,0-3.082-4.186l-3.68,1.794a26.932,26.932,0,0,1,1.748,2.392H-114.08V-31h7.912l-2.576,1.978c2.714.506,5.7,1.15,8.6,1.886-3.542.828-7.176,1.472-10.488,1.978a23.061,23.061,0,0,1,2.3,2.116h-6.21v8.188c0,4.738-.368,11.27-4.094,15.87A19.467,19.467,0,0,1-114.4,4.554c3.036-3.726,4.37-9.016,4.922-13.8a30.721,30.721,0,0,1,2.162,4.6A26.413,26.413,0,0,0-104.7-7.5v3.312h9.752v2.668h-13.938V2.9h33.81V-1.518Zm57.5-36.386a56.366,56.366,0,0,1-3.864,8.786l4.6,1.656a93.446,93.446,0,0,0,4.37-8.648Zm-11.454,8.6a27.743,27.743,0,0,0-4.232-8.28l-4.37,2.024a32.005,32.005,0,0,1,3.91,8.51ZM-63.3-27.508a39.938,39.938,0,0,0,3.036-4.278c1.61,1.426,3.312,2.9,4.692,4.278ZM-52.578-5.06l-5.428.92V-14.95h5.06V-19.6h-5.06v-3.358h3.174v-3.818c.414.414.736.782,1.058,1.15l3.082-4.232c-1.61-1.61-4.6-4.094-7.13-6.164.276-.506.506-1.058.736-1.564l-4.738-1.656A30.538,30.538,0,0,1-70.288-28.2a37.53,37.53,0,0,1,2.346,5.612c.552-.46,1.058-.966,1.61-1.472v1.1h3.588V-19.6h-6.394v4.646h6.394V-3.4c-2.668.414-5.152.782-7.038,1.058l1.1,4.968C-64.078,1.564-58.1.276-52.394-1.1Zm-16.376-7.268A63.692,63.692,0,0,1-67.39-4.37l3.772-1.058a71.24,71.24,0,0,0-1.794-7.82Zm14.628,7.36c.782-1.932,1.7-5.014,2.622-7.682l-4.14-1.058a51.723,51.723,0,0,1-1.7,7.774Zm8.6-11.27a40.663,40.663,0,0,1,9.246,3.726l2.346-3.68A36.078,36.078,0,0,0-43.516-19.5Zm-.046-5.2h12.144v9.292c-4.462,1.058-8.924,2.07-12.19,2.668.046-.828.046-1.7.046-2.484Zm17.25-4.738h-8.51V-38.916h-5.244v12.742H-50.83v14.168c0,4.37-.138,9.614-2.208,13.294a20.617,20.617,0,0,1,4.37,3.036C-46.782,1.1-46.092-3.634-45.862-8l1.15,3.128c3.266-.828,7.176-1.84,11.086-2.9v5.75c0,.6-.23.828-.92.828-.69.046-2.944.046-5.06-.092a18.774,18.774,0,0,1,1.518,5.06c3.358,0,5.8-.046,7.406-.874,1.7-.828,2.162-2.3,2.162-4.83ZM5.014-5.244h7.774a13.635,13.635,0,0,1-3.726,2.53,18.434,18.434,0,0,1-4.324-2.3ZM4.37-13.432h9.2v1.564H4.37Zm0-3.726h9.2v1.472H4.37ZM-5.8-19.228a25.834,25.834,0,0,1-7.176,7.13c.322-3.22.46-6.348.506-9.2A39.049,39.049,0,0,1-9.43-17.8,26.5,26.5,0,0,0-2.024-25.07L-6.21-26.45A20.226,20.226,0,0,1-12.42-21.3v-5.566H2.07a22.04,22.04,0,0,1-5.8,7.268,15.625,15.625,0,0,1,.92,1.426ZM12.972-33.534v2.484H-12.42v-2.484ZM16.33-8.326l-.828.138H7.912c.276-.322.506-.644.736-.966L7.36-9.522H18.17V-19.5H2.576A15.9,15.9,0,0,0,3.588-20.93H19.826v-3.4H5.658c.23-.414.414-.782.6-1.2l-3.91-1.334H18.492v-10.81H-17.94v13.846c0,7.36-.276,17.94-4.094,25.162A22.327,22.327,0,0,1-17.066,4c2.116-4.094,3.312-9.476,3.956-14.72a29.676,29.676,0,0,1,1.7,3.68c.552-.368,1.15-.828,1.748-1.288V3.956h4.784v-17.02a28.724,28.724,0,0,0,2.714-3.772c.368.644.644,1.288.828,1.656A16.115,16.115,0,0,0-.046-16.422v6.9H3.818A19.99,19.99,0,0,1,1.794-7.636,10.911,10.911,0,0,1,.736-9.016L-2.99-7.958a20.873,20.873,0,0,0,1.656,2.3,25.714,25.714,0,0,1-2.99,1.472A33.069,33.069,0,0,1-1.1-1.242C-.23-1.7.69-2.162,1.61-2.714A28.406,28.406,0,0,0,4.186-.874,40.745,40.745,0,0,1-2.852.368,17.979,17.979,0,0,1-.782,4,43.427,43.427,0,0,0,9.062,1.564a47.161,47.161,0,0,0,9.66,2.346A17.459,17.459,0,0,1,21.252.138,53.727,53.727,0,0,1,13.938-1.1a16.808,16.808,0,0,0,5.2-6.118Zm24.794-4.922h4.462v-4.416c.874.828,1.748,1.656,2.208,2.162l2.622-3.312c-.69-.506-2.944-1.886-4.278-2.714H50.37v-3.818H45.586v-2.76a33.322,33.322,0,0,0,4.508-1.242l-3.312-2.76C44.252-31.1,39.7-30.452,35.7-30.13a13.862,13.862,0,0,1,1.2,3.036c1.334-.046,2.76-.184,4.232-.322v2.07H36.11v3.818h3.082A17.423,17.423,0,0,1,35.006-17.3c.092-2.116.138-4.094.138-5.888v-9.2h33.81v-4.922H30.038v14.122c0,7.268-.276,17.48-3.726,24.564a20.728,20.728,0,0,1,4.646,2.576c2.53-5.29,3.588-12.65,3.956-19.274a14.363,14.363,0,0,1,1.794,2.162,22.176,22.176,0,0,0,4.416-4.922ZM54.648-5.52H65.09V-9.752H54.648v-3.772H52.532a19.455,19.455,0,0,0,4.278-5.2v5.474h4.6v-4.646c1.978,1.564,4.324,3.5,5.52,4.692l2.438-3.5c-1.1-.828-5.336-3.634-7.268-4.83h5.842v-3.818H61.41v-2.9a34.114,34.114,0,0,0,5.2-1.334l-3.358-2.76c-2.76,1.058-7.912,1.748-12.374,2.116a9.934,9.934,0,0,1,1.1,3.082c1.564-.092,3.22-.184,4.83-.368v2.162H51.52v3.818h2.944a17.924,17.924,0,0,1-5.336,5.06,16.964,16.964,0,0,1,2.76,2.944H49.312V-1.61H44.344v-8.648H39.1V-1.61H34.132V2.9H69V-1.61H54.648ZM80.454-17.3h2.622v2.714H80.454Zm0-6.3h2.622v2.714H80.454Zm8.97,2.714H86.618V-23.6h2.806Zm0,6.3H86.618V-17.3h2.806ZM87.262-10.81H93.38V-27.416H87.262v-2.392h6.532v-4.738H87.262v-4.37h-4.83v4.37H75.67v4.738h6.762v2.392H76.544V-10.81h5.888v2.76H75.026v4.784h7.406V4h4.83V-3.266h7.084V-8.05H87.262Zm24.564-10.212v2.944h-3.5v-2.944Zm-3.5,10.4v-3.036h3.5v3.036Zm-8.234,0v-3.036h3.4v3.036Zm3.4-10.4v2.944h-3.4v-2.944Zm14.306-7.452v-4.738H115.23l2.024-1.748a24.542,24.542,0,0,0-5.014-4.14l-2.99,2.438a26.676,26.676,0,0,1,4,3.45H108.33v-5.7H103.5v5.7H94.576v4.738H103.5v2.806H95.22V3.956H100.1V-6.072h3.4V3.634h4.83V-6.072h3.5v4.6c0,.414-.092.552-.46.552a19.231,19.231,0,0,1-2.346,0,18.226,18.226,0,0,1,1.242,4.83c2.208,0,3.818-.092,5.06-.92,1.288-.828,1.564-2.208,1.564-4.37V-25.668H108.33v-2.806Zm16.514-5.75a32.575,32.575,0,0,0-2.3-4.554l-4.554.966a35.572,35.572,0,0,1,2.208,4.738Zm22.816,8h-13.2V-27.6h13.2Zm0,3.772h-13.2V-23.92h13.2Zm0,3.772h-13.2v-1.472h13.2Zm-1.15,7.958h-1.15c3.68-.046,7.36-.184,10.4-.322a13.914,13.914,0,0,1,1.61-4.646c-5.152.552-12.6.782-17.618.782-6.854,0-11.178-.368-13.616-3.956a27.322,27.322,0,0,0,2.254-5.29l-1.794-1.38-.782.138h-3.358c1.886-2.024,3.864-4.37,5.244-6.118H147.89a13.747,13.747,0,0,1-.414,1.472h-8.05v13.754h22.448V-30.038H152.26l.69-1.472h12.374v-3.68h-6.67c.644-.92,1.288-1.978,1.978-3.036L155.48-39.1a25.132,25.132,0,0,1-1.886,3.91h-5.612a19.842,19.842,0,0,0-2.208-4.094l-4.324,1.15a25.1,25.1,0,0,1,1.472,2.944h-6.578v2.806l-1.886-.966-.92.368h-8.28v4.232H129.9c-1.15,1.334-2.254,2.53-2.806,3.036a5.32,5.32,0,0,1-2.254,1.242,34.452,34.452,0,0,1,1.564,4v.046a5.052,5.052,0,0,1,2.852-.736h2.76a18.218,18.218,0,0,1-7.774,7.5,15.827,15.827,0,0,1,2.714,3.726,21.125,21.125,0,0,0,6.67-5.888c2.99,4.416,7.636,5.152,15.548,5.152h1.564v1.7H124.154v4.094h10.488l-2.484,2.024a34.611,34.611,0,0,1,5.888,5.566L142-.6a31.327,31.327,0,0,0-4.692-4.278h13.432v3.5c0,.506-.23.644-.92.69-.736,0-3.266,0-5.52-.092A17.989,17.989,0,0,1,146,3.91c3.4,0,5.888,0,7.636-.736,1.886-.736,2.346-1.978,2.346-4.462V-4.876H165.6V-8.97h-9.614ZM192.28-31.372h-9.66l2.99-1.656a45.708,45.708,0,0,0-3.358-6.118l-4.278,1.978a57.839,57.839,0,0,1,2.99,5.8h-8.05v4.324H192.28Zm-1.932,10.534v-4.14h-15.41v4.14Zm-.046,2.024H174.938v4.14H190.3ZM185.7-8.1v5.152h-5.98V-8.1Zm4.738-4.37H175.122V3.4h4.6V1.472H190.44ZM214.36-23.69h-8.51V-38.134h-5.7V-23.69H192.1v5.382h8.05V4h5.7v-22.31h8.51Zm6.3,26.45H262.43V-.828H220.662ZM252.034-9.154h-8.188v-1.61h8.188Zm0,4.232h-8.188v-1.7h8.188Zm-20.792-1.7h7.59v1.7h-7.59Zm0-4.14h7.59v1.61h-7.59Zm-5.382-2.622V-2.3H257.6V-13.386Zm18.124-15.5h8.1v1.656h-8.1Zm0-4.462h8.1v1.518h-8.1Zm0,15.088v-1.61h15.364v-2.9H243.984v-1.61h13.57v-4.508h4.6v-2.944h-4.6v-4.416h-13.57v-2.714h-5.52v2.714H225.63v2.9h12.834v1.518H220.846v2.944h17.618v1.656H225.4v2.852h13.064v1.61h-14.49v2.9h14.49v1.61H220.708V-14.9h41.768v-3.358ZM-128.984,29.292H-140.76v4h11.776ZM-130.5,56.984h19.918v2.07H-130.5Zm0-5.06h19.918V53.9H-130.5Zm0-5.06h19.918v1.978H-130.5Zm25.484,15.41V43.6h-30.774V62.274h6.624a52.456,52.456,0,0,1-12.558,3.818,37.016,37.016,0,0,1,4.048,4,59.693,59.693,0,0,0,14.352-5.98l-4-1.84h12.972l-2.806,2.254a84.678,84.678,0,0,1,11.96,5.428l4.922-2.944c-2.714-1.334-7.222-3.174-11.454-4.738Zm-7.958-27.554V33.8h5.106a27.2,27.2,0,0,1-1.61,2.668l4.232,1.564a40.3,40.3,0,0,0,4.232-7.268l-3.726-1.15-.828.23h-13.064c.276-.644.552-1.334.782-2.024l-4.784-1.058a18.515,18.515,0,0,1-5.382,8.188,26.266,26.266,0,0,1,4.048,2.806,20.082,20.082,0,0,0,3.22-3.956h2.76v.69c0,1.7-1.15,3.772-9.936,4.692V36.376h-13.892v4.186h12.19a15.491,15.491,0,0,1,1.84,2.99c7.728-.874,11.546-2.668,13.294-4.692,2.9,2.53,6.9,4,12.052,4.646a17.733,17.733,0,0,1,3.036-4.37c-6.21-.322-11.086-1.472-13.57-3.91Zm36.248-.092h-8.1l2.806-1.656A47.668,47.668,0,0,0-85.1,26.854l-3.91,1.978a41.016,41.016,0,0,1,2.714,5.8H-93.61v4.324h16.882Zm-1.656,10.534v-4.14h-13.34v4.14ZM-82.616,57.9v5.152h-4.876V57.9Zm4.324-4.37H-91.678V69.4h4.186V67.472h9.2Zm-13.432-2.208h13.432v-4.14H-91.724ZM-76.13,29.384v5.2h4.508V46.726h-5.152v5.106h5.152V69.956h5.106V51.832H-62.1V46.726h-4.416V34.582h5.566c-.046,17.112,0,33.028,4.37,34.868,2.852,1.2,5.2-.23,5.888-6.946a25.322,25.322,0,0,1-2.852-4.416c-.138,2.944-.368,5.934-.6,5.842-1.7-.552-1.748-19.412-1.334-34.546Zm54.556,32.66H-9.706v-4H-21.574v-2.3H-6.026V51.326H-42.32v4.416h15.364V64.39h-6.072v-6.9h-5.244v6.9H-45.08V68.9H-3.174V64.39h-18.4ZM-11.5,36.1a16.154,16.154,0,0,1-2.162,4.37,19.974,19.974,0,0,1-2.99-4.37Zm-20.01,8.74V43.322h1.242ZM-39.376,37.8h3.082v2.346h-3.082Zm10.672,0v2.346H-31.51V37.8Zm25.346-1.7V31.73h-11.5c.414-1.15.828-2.3,1.2-3.5l-4.876-1.15a22.5,22.5,0,0,1-5.7,10.212V34.582H-31.51V33.018h7.958V29.2H-31.51V26.992h-4.784V29.2h-8.372v3.818h8.372v1.564h-7.314v8.74h5.382a23.768,23.768,0,0,1-7.406,4.462,16.9,16.9,0,0,1,3.082,3.45,24.93,24.93,0,0,0,6.256-4.554v3.634h4.784V45.622a28.453,28.453,0,0,1,4.922,3.588l2.254-3.036a31.218,31.218,0,0,0-4.278-2.852h4.37V38.63a36.944,36.944,0,0,1,2.806,3.128,17.579,17.579,0,0,0,1.978-2.116,32.25,32.25,0,0,0,2.714,4A21.932,21.932,0,0,1-24.61,47.37a17.972,17.972,0,0,1,3.036,3.91,26.974,26.974,0,0,0,8.142-4.37,23.42,23.42,0,0,0,7.958,4.462,19.55,19.55,0,0,1,2.99-4.232A22.789,22.789,0,0,1-10.166,43.6a22.52,22.52,0,0,0,3.772-7.5ZM33.58,55.6v7.268H15.364V55.6ZM9.752,69.956h5.612V67.932H33.58v1.84h5.842v-19H9.752ZM16.974,41.8a57.236,57.236,0,0,0,7.59-6.578,58,58,0,0,0,8,6.578Zm7.59-15c-4.83,7.176-13.524,12.742-21.988,16.1a22.291,22.291,0,0,1,4,5.014,62.166,62.166,0,0,0,6.164-3.358v2.254h23v-2.99c2.162,1.242,4.416,2.346,6.624,3.4a16.546,16.546,0,0,1,3.772-5.014A51.574,51.574,0,0,1,27.922,31.362c.506-.644,1.012-1.334,1.518-2.024ZM93.38,49.256H75.3V35.318h15.41V29.89H54.1v5.428H69.6V49.256H51.7v5.52H69.6V70h5.7V54.776H93.38ZM56.9,38.262A45.228,45.228,0,0,1,60.26,47.83L65.6,46.174a41.96,41.96,0,0,0-3.68-9.384Zm26.864,9.476a82.334,82.334,0,0,0,5.06-9.614l-5.842-1.472a54.508,54.508,0,0,1-4,9.706Zm46.6,7.268v7.36h-19.5v-7.36Zm-25.116,14.95h5.612V67.61h19.5v2.3h5.888V49.762h-31Zm19.274-35.834c1.7,1.7,3.542,3.634,5.336,5.658l-18.86.6a75.615,75.615,0,0,0,10.028-11.73l-5.52-2.346a61.379,61.379,0,0,1-9.752,12.512,9.476,9.476,0,0,1-3.818,2.668,41.879,41.879,0,0,1,1.794,5.244c2.438-.828,5.7-.92,30.13-2.116a40.237,40.237,0,0,1,2.392,3.5l4.646-3.358c-2.392-3.864-7.866-9.522-12.1-13.478Z" transform="translate(315 368)" fill="#2c4a3a"/>
      <g id="Group_9" data-name="Group 9" transform="translate(154.143 181.717)">
        <g id="Group_8" data-name="Group 8" clip-path="url(#clip-path)">
          <path id="Path_47" data-name="Path 47" d="M148.874,94.159a5.035,5.035,0,0,1-.584-1.334l-2.6-7.752h-.276l-2.579,7.546A6.106,6.106,0,0,1,142.244,94a.876.876,0,0,1-.555.37l-.1.019v.475h2.614v-.484l-.109-.011a1.449,1.449,0,0,1-.637-.141.567.567,0,0,1-.194-.484,2.4,2.4,0,0,1,.141-.715l.272-.827h2.34l.352,1.082c.095.3.147.462.156.508a1.044,1.044,0,0,1,.028.228.3.3,0,0,1-.078.228.775.775,0,0,1-.5.121h-.265v.5h3.693v-.484l-.109-.011a.594.594,0,0,1-.423-.206m-4.93-2.713.922-2.716.9,2.716Z" transform="translate(-19.546 -11.744)" fill="#20992a"/>
          <path id="Path_48" data-name="Path 48" d="M155.885,91.187h.305a.6.6,0,0,1,.367.109.514.514,0,0,1,.2.234,2.442,2.442,0,0,1,.052.676v1.869a3.084,3.084,0,0,1-.465.17,1.945,1.945,0,0,1-.5.068,1.761,1.761,0,0,1-1.2-.445,2.7,2.7,0,0,1-.744-1.428,10.2,10.2,0,0,1-.239-2.332,10.552,10.552,0,0,1,.219-2.141,3.361,3.361,0,0,1,.722-1.589,1.587,1.587,0,0,1,1.24-.55,2.044,2.044,0,0,1,1.454.667,4.337,4.337,0,0,1,1.027,2l.023.09h.409V85.048h-.409l-.024.089a1.269,1.269,0,0,1-.207.486.244.244,0,0,1-.178.1,2.671,2.671,0,0,1-.56-.246,4.287,4.287,0,0,0-.773-.323,3.973,3.973,0,0,0-.989-.114,3.592,3.592,0,0,0-2.941,1.5,5.785,5.785,0,0,0-1.156,3.641,6,6,0,0,0,.378,2.175,4.64,4.64,0,0,0,.823,1.364,4.324,4.324,0,0,0,1.215.978,3.647,3.647,0,0,0,1.745.378,5.861,5.861,0,0,0,1.564-.209,6.071,6.071,0,0,0,1.452-.615l.059-.034V92.2a2.21,2.21,0,0,1,.042-.6.56.56,0,0,1,.192-.295,1.1,1.1,0,0,1,.491-.119l.111-.01v-.487h-3.709Z" transform="translate(-20.917 -11.74)" fill="#20992a"/>
          <path id="Path_49" data-name="Path 49" d="M165.355,94.395h-.122a1.154,1.154,0,0,1-.6-.1.512.512,0,0,1-.2-.253,3.578,3.578,0,0,1-.063-.916v-2.5h.272l2.3,4.263h2.441V94.4l-.113-.008a.65.65,0,0,1-.421-.2,4.755,4.755,0,0,1-.459-.74l-1.647-3.043a2.237,2.237,0,0,0,.934-.63A2.7,2.7,0,0,0,168.266,88a2.935,2.935,0,0,0-.395-1.54,2.084,2.084,0,0,0-1.038-.917A5.632,5.632,0,0,0,164.9,85.3h-3.435v.5h.122a1.177,1.177,0,0,1,.6.1.489.489,0,0,1,.2.256,3.4,3.4,0,0,1,.065.913v6.07a3.329,3.329,0,0,1-.065.911.512.512,0,0,1-.2.256,1.142,1.142,0,0,1-.6.1h-.122v.5h3.893Zm.94-6.384a2.837,2.837,0,0,1-.2,1.147,1.116,1.116,0,0,1-.512.576,2.539,2.539,0,0,1-1.041.163h-.177V86.042h.44a1.3,1.3,0,0,1,1.129.462,2.535,2.535,0,0,1,.359,1.507" transform="translate(-22.289 -11.775)" fill="#20992a"/>
          <path id="Path_50" data-name="Path 50" d="M174.973,94.395h-.359a.638.638,0,0,1-.4-.11.544.544,0,0,1-.2-.254,3.629,3.629,0,0,1-.054-.86V87.017a3.475,3.475,0,0,1,.05-.829.54.54,0,0,1,.177-.275.678.678,0,0,1,.423-.12h.359v-.5H171v.5h.358a.644.644,0,0,1,.4.109.53.53,0,0,1,.192.254,3.651,3.651,0,0,1,.053.86V93.17a3.294,3.294,0,0,1-.053.834.5.5,0,0,1-.167.272.694.694,0,0,1-.426.12H171v.5h3.971Z" transform="translate(-23.606 -11.775)" fill="#20992a"/>
          <path id="Path_51" data-name="Path 51" d="M178.508,94.449a3.659,3.659,0,0,0,2.095.621,3.175,3.175,0,0,0,1.578-.384,4.1,4.1,0,0,0,1.309-1.3V92.175l-.224.342a4.731,4.731,0,0,1-1.148,1.3,2.008,2.008,0,0,1-1.164.365,1.653,1.653,0,0,1-1.248-.49,3.175,3.175,0,0,1-.726-1.5,10.072,10.072,0,0,1-.239-2.259,7.561,7.561,0,0,1,.327-2.281,2.807,2.807,0,0,1,.782-1.265,1.68,1.68,0,0,1,1.142-.471,1.8,1.8,0,0,1,1.339.638,3.675,3.675,0,0,1,.832,1.885l.018.1h.429V85.048h-.437l-.011.109a.936.936,0,0,1-.136.453.244.244,0,0,1-.195.113,1.867,1.867,0,0,1-.559-.234,3.625,3.625,0,0,0-1.644-.44,3.354,3.354,0,0,0-2,.685,4.662,4.662,0,0,0-1.48,1.912,6.324,6.324,0,0,0-.543,2.586,6.17,6.17,0,0,0,.49,2.442,3.967,3.967,0,0,0,1.411,1.776" transform="translate(-24.38 -11.741)" fill="#20992a"/>
          <path id="Path_52" data-name="Path 52" d="M192.506,90.651V87.1a2.958,2.958,0,0,1,.064-.76.794.794,0,0,1,.247-.415.662.662,0,0,1,.424-.13h.269v-.5H190.8v.5h.122a1.089,1.089,0,0,1,.6.135.66.66,0,0,1,.208.316,2.754,2.754,0,0,1,.092.854v3.815a7.375,7.375,0,0,1-.2,2.051,1.936,1.936,0,0,1-.573.888,1.357,1.357,0,0,1-.907.313,1.16,1.16,0,0,1-.76-.241,1.37,1.37,0,0,1-.437-.623,5.982,5.982,0,0,1-.139-1.622V87.1a4.093,4.093,0,0,1,.06-.962.5.5,0,0,1,.179-.255.891.891,0,0,1,.5-.089h.305v-.5h-3.924v.377l.054.122h.122a.908.908,0,0,1,.5.088.5.5,0,0,1,.191.253,3.881,3.881,0,0,1,.062.965v4.58a5.122,5.122,0,0,0,.293,1.9,2.552,2.552,0,0,0,1.02,1.187,2.781,2.781,0,0,0,1.5.344,2.558,2.558,0,0,0,1.836-.647,2.827,2.827,0,0,0,.843-1.407,12.054,12.054,0,0,0,.167-2.407" transform="translate(-25.667 -11.775)" fill="#20992a"/>
          <path id="Path_53" data-name="Path 53" d="M202.239,91.366h-.445l-.022.095a7.927,7.927,0,0,1-.515,1.643,1.97,1.97,0,0,1-.615.782,1.512,1.512,0,0,1-.876.24h-.595a1.815,1.815,0,0,1-.579-.047.371.371,0,0,1-.188-.224,3.641,3.641,0,0,1-.057-.877v-5.96a3.273,3.273,0,0,1,.053-.831.521.521,0,0,1,.173-.274.679.679,0,0,1,.424-.119h.432v-.5h-4.043v.5h.357a.649.649,0,0,1,.4.109.526.526,0,0,1,.192.254,3.67,3.67,0,0,1,.053.86v6.152a3.317,3.317,0,0,1-.053.835.5.5,0,0,1-.168.271.7.7,0,0,1-.426.12h-.357v.5h6.564Z" transform="translate(-26.973 -11.775)" fill="#20992a"/>
          <path id="Path_54" data-name="Path 54" d="M205.58,94a.539.539,0,0,1-.177.274.675.675,0,0,1-.423.12h-.359v.5H208.6v-.5h-.359a.657.657,0,0,1-.407-.109.553.553,0,0,1-.2-.256,3.6,3.6,0,0,1-.053-.859V86.075h.409a1.277,1.277,0,0,1,.633.1,1.479,1.479,0,0,1,.521.566,4.686,4.686,0,0,1,.361,1.225l.02.1h.413V85.295h-6.648v2.774h.43l.013-.106a2.928,2.928,0,0,1,.552-1.533,1.164,1.164,0,0,1,.95-.354h.394v7.094a3.5,3.5,0,0,1-.05.831" transform="translate(-28.064 -11.775)" fill="#20992a"/>
          <path id="Path_55" data-name="Path 55" d="M214.2,94.768a2.77,2.77,0,0,0,1.5.344,2.558,2.558,0,0,0,1.837-.648,2.812,2.812,0,0,0,.84-1.4,12.189,12.189,0,0,0,.168-2.407V87.1a2.9,2.9,0,0,1,.064-.76.788.788,0,0,1,.249-.415.653.653,0,0,1,.421-.131h.272v-.5h-2.71v.5h.122a1.074,1.074,0,0,1,.6.136.658.658,0,0,1,.209.315,2.82,2.82,0,0,1,.09.854v3.816a7.313,7.313,0,0,1-.2,2.051,1.922,1.922,0,0,1-.573.887,1.352,1.352,0,0,1-.907.314,1.169,1.169,0,0,1-.758-.242,1.363,1.363,0,0,1-.439-.623,6.007,6.007,0,0,1-.137-1.621V87.1a4.119,4.119,0,0,1,.059-.963.486.486,0,0,1,.177-.253.884.884,0,0,1,.5-.09h.305v-.5h-3.924v.377l.054.121h.122a.9.9,0,0,1,.5.089.5.5,0,0,1,.191.253,3.849,3.849,0,0,1,.062.964V91.68a5.1,5.1,0,0,0,.292,1.9,2.545,2.545,0,0,0,1.019,1.188" transform="translate(-29.261 -11.775)" fill="#20992a"/>
          <path id="Path_56" data-name="Path 56" d="M225.317,94.395H225.2a1.171,1.171,0,0,1-.6-.1.494.494,0,0,1-.2-.254,3.433,3.433,0,0,1-.065-.915v-2.5h.274l2.3,4.263h2.44V94.4l-.113-.008a.655.655,0,0,1-.419-.2,4.224,4.224,0,0,1-.459-.74L226.7,90.415a2.252,2.252,0,0,0,.933-.63,2.7,2.7,0,0,0,.6-1.789,2.957,2.957,0,0,0-.395-1.54,2.1,2.1,0,0,0-1.039-.917,5.7,5.7,0,0,0-1.938-.243h-3.434v.5h.122a1.185,1.185,0,0,1,.6.1.515.515,0,0,1,.2.255,3.517,3.517,0,0,1,.063.915v6.07a3.534,3.534,0,0,1-.062.91.533.533,0,0,1-.2.256,1.142,1.142,0,0,1-.6.1h-.122v.5h3.892Zm.939-6.384a2.842,2.842,0,0,1-.195,1.147,1.121,1.121,0,0,1-.514.577,2.547,2.547,0,0,1-1.04.162h-.178V86.042h.442a1.3,1.3,0,0,1,1.128.461,2.545,2.545,0,0,1,.357,1.508" transform="translate(-30.567 -11.775)" fill="#20992a"/>
          <path id="Path_57" data-name="Path 57" d="M237.273,91.677l-.02.1a3.545,3.545,0,0,1-.832,1.788,2.015,2.015,0,0,1-1.515.572h-.424a.61.61,0,0,1-.365-.084.438.438,0,0,1-.147-.222,4.6,4.6,0,0,1-.045-.912V90.4a1.188,1.188,0,0,1,.59.152,1.331,1.331,0,0,1,.423.63,4.443,4.443,0,0,1,.257,1.276l.009.111h.434V87.434H235.2l-.009.112a4.1,4.1,0,0,1-.374,1.6.917.917,0,0,1-.877.5h-.019V86.076h.615a3.2,3.2,0,0,1,1.057.115,1.482,1.482,0,0,1,.724.6,3.906,3.906,0,0,1,.411,1.408l.016.1h.428V85.3h-6.211v.5h.359a.628.628,0,0,1,.464.161.559.559,0,0,1,.158.3,6.094,6.094,0,0,1,.023.758V93.17a3.493,3.493,0,0,1-.05.834.51.51,0,0,1-.171.272.675.675,0,0,1-.424.12h-.359v.5h6.394l.345-3.214Z" transform="translate(-31.884 -11.775)" fill="#20992a"/>
          <path id="Path_58" data-name="Path 58" d="M247.068,94.223a.568.568,0,0,1-.195-.484,2.431,2.431,0,0,1,.141-.715l.272-.827h2.339l.353,1.082c.094.293.147.459.156.51a.919.919,0,0,1,.028.226.3.3,0,0,1-.075.227.772.772,0,0,1-.5.122h-.266v.5h3.694v-.484l-.11-.011a.6.6,0,0,1-.423-.205,4.84,4.84,0,0,1-.582-1.335l-2.6-7.752h-.276l-2.58,7.546A6.1,6.1,0,0,1,245.853,94a.876.876,0,0,1-.556.37l-.1.019v.475h2.614v-.484l-.109-.011a1.461,1.461,0,0,1-.637-.141m.484-2.778.922-2.716.9,2.716Z" transform="translate(-33.849 -11.744)" fill="#20992a"/>
          <path id="Path_59" data-name="Path 59" d="M256.727,94.149a1.485,1.485,0,0,1-.246-1.007V87.626l4.63,7.48h.368V87.2a3.324,3.324,0,0,1,.081-.9.676.676,0,0,1,.2-.334,1.31,1.31,0,0,1,.553-.172l.1-.017V85.3h-2.6v.377l.041.121h.122a.758.758,0,0,1,.7.328,2.211,2.211,0,0,1,.166,1.076v3.586L257.52,85.3H254.8v.494l.117,0a.84.84,0,0,1,.434.109,1.506,1.506,0,0,1,.365.453l.134.186v6.6a1.742,1.742,0,0,1-.205.983.876.876,0,0,1-.725.269l-.121,0v.495h2.771v-.5h-.288a.766.766,0,0,1-.558-.246" transform="translate(-35.175 -11.775)" fill="#20992a"/>
          <path id="Path_60" data-name="Path 60" d="M271.49,91.972a6.7,6.7,0,0,0,.245-1.851,6.488,6.488,0,0,0-.5-2.607,3.64,3.64,0,0,0-1.493-1.747,4.189,4.189,0,0,0-2.118-.471h-3.313v.5h.359a.644.644,0,0,1,.4.109.527.527,0,0,1,.193.254,3.745,3.745,0,0,1,.052.86V93.17a3.866,3.866,0,0,1-.042.83.606.606,0,0,1-.2.292.669.669,0,0,1-.4.1h-.359v.5h3.313a4.566,4.566,0,0,0,1.04-.085,4.091,4.091,0,0,0,1.264-.525,3.4,3.4,0,0,0,.921-.9,4.756,4.756,0,0,0,.644-1.409m-2.511,1.441a1.346,1.346,0,0,1-1.235.727.583.583,0,0,1-.342-.084.25.25,0,0,1-.094-.136,3.125,3.125,0,0,1-.035-.673V86.069a2.369,2.369,0,0,1,1.073.191,2.092,2.092,0,0,1,.825,1.083,7.835,7.835,0,0,1,.422,2.832,6.6,6.6,0,0,1-.614,3.237" transform="translate(-36.487 -11.775)" fill="#20992a"/>
          <path id="Path_61" data-name="Path 61" d="M284.164,94.395H283.8a.641.641,0,0,1-.4-.11.54.54,0,0,1-.195-.254,3.63,3.63,0,0,1-.054-.86V90.428h.084a1.3,1.3,0,0,1,.921.391,2.7,2.7,0,0,1,.508,1.677l.009.112h.419v-4.94h-.418l-.01.111a3.429,3.429,0,0,1-.259,1.152,1.126,1.126,0,0,1-1.169.743h-.084v-3.6h.54a4.272,4.272,0,0,1,1.129.1,1.506,1.506,0,0,1,.812.594,2.9,2.9,0,0,1,.355,1.342l.009.111h.452V85.3h-6.26v.5h.359a.644.644,0,0,1,.4.109.53.53,0,0,1,.192.254,3.648,3.648,0,0,1,.053.86V93.17a3.329,3.329,0,0,1-.053.834.522.522,0,0,1-.168.272.694.694,0,0,1-.426.12h-.359v.5h3.973Z" transform="translate(-38.68 -11.775)" fill="#20992a"/>
          <path id="Path_62" data-name="Path 62" d="M295.255,86.494a3.243,3.243,0,0,0-2.674-1.356c-.065,0-.13,0-.183.005s-.122-.005-.183-.005a3.179,3.179,0,0,0-2.578,1.358,5.629,5.629,0,0,0-1.106,3.547,6.158,6.158,0,0,0,.847,3.271,3.521,3.521,0,0,0,6.155-.084,6.2,6.2,0,0,0,.81-3.193,5.672,5.672,0,0,0-1.089-3.543M291.3,93.585a7.4,7.4,0,0,1-.628-3.48,8.894,8.894,0,0,1,.407-3.046c.324-.829.773-1.233,1.374-1.233a1.215,1.215,0,0,1,.856.346,2.737,2.737,0,0,1,.636,1.246,10.836,10.836,0,0,1,.259,2.744,10.1,10.1,0,0,1-.253,2.5,2.891,2.891,0,0,1-.688,1.354,1.128,1.128,0,0,1-.819.312,1.252,1.252,0,0,1-1.144-.74" transform="translate(-39.831 -11.753)" fill="#20992a"/>
          <path id="Path_63" data-name="Path 63" d="M302.675,95.084a3.412,3.412,0,0,0,3.076-1.854,6.219,6.219,0,0,0,.81-3.193,5.676,5.676,0,0,0-1.09-3.543,3.244,3.244,0,0,0-2.676-1.356c-.064,0-.129,0-.183.005s-.121-.005-.182-.005a3.181,3.181,0,0,0-2.579,1.358,5.634,5.634,0,0,0-1.106,3.548,6.156,6.156,0,0,0,.848,3.271,3.442,3.442,0,0,0,3.081,1.769m-1.381-8.025c.323-.829.773-1.233,1.376-1.233a1.233,1.233,0,0,1,.856.346,2.746,2.746,0,0,1,.635,1.246,10.833,10.833,0,0,1,.258,2.744,10.1,10.1,0,0,1-.253,2.5,2.9,2.9,0,0,1-.687,1.354,1.132,1.132,0,0,1-.82.312,1.255,1.255,0,0,1-1.145-.739,7.428,7.428,0,0,1-.628-3.481,8.9,8.9,0,0,1,.407-3.046" transform="translate(-41.241 -11.753)" fill="#20992a"/>
          <path id="Path_64" data-name="Path 64" d="M315.175,93.381a4.721,4.721,0,0,0,.644-1.409,6.7,6.7,0,0,0,.245-1.851,6.488,6.488,0,0,0-.5-2.607,3.64,3.64,0,0,0-1.493-1.747,4.191,4.191,0,0,0-2.118-.471h-3.313v.5H309a.644.644,0,0,1,.4.109.526.526,0,0,1,.193.254,3.741,3.741,0,0,1,.052.86V93.17a3.882,3.882,0,0,1-.042.83.606.606,0,0,1-.2.292.669.669,0,0,1-.4.1h-.359v.5h3.313a4.565,4.565,0,0,0,1.039-.085,4.091,4.091,0,0,0,1.264-.525,3.4,3.4,0,0,0,.921-.9m-1.867.032a1.346,1.346,0,0,1-1.235.727.583.583,0,0,1-.342-.084.247.247,0,0,1-.094-.135,3.171,3.171,0,0,1-.035-.674V86.069a2.369,2.369,0,0,1,1.073.191,2.092,2.092,0,0,1,.825,1.083,7.833,7.833,0,0,1,.422,2.832,6.6,6.6,0,0,1-.614,3.237" transform="translate(-42.607 -11.775)" fill="#20992a"/>
          <path id="Path_65" data-name="Path 65" d="M326.265,94.376l-.109-.011a1.491,1.491,0,0,1-.637-.14.57.57,0,0,1-.195-.484,2.428,2.428,0,0,1,.142-.715l.271-.827h2.342l.352,1.082c.1.3.146.465.155.508a1.018,1.018,0,0,1,.028.228.3.3,0,0,1-.076.228.778.778,0,0,1-.5.121h-.264v.5h3.693v-.484l-.109-.011a.6.6,0,0,1-.422-.206,5.019,5.019,0,0,1-.583-1.334l-2.6-7.752h-.276L324.9,92.618A6.1,6.1,0,0,1,324.3,94a.878.878,0,0,1-.556.37l-.1.019v.475h2.614ZM326,91.445l.922-2.716.9,2.716Z" transform="translate(-44.679 -11.744)" fill="#20992a"/>
          <path id="Path_66" data-name="Path 66" d="M334.78,93.721A4.324,4.324,0,0,0,336,94.7a3.645,3.645,0,0,0,1.744.378,5.834,5.834,0,0,0,1.565-.209,6.078,6.078,0,0,0,1.452-.615l.06-.035V92.2a2.4,2.4,0,0,1,.039-.6.58.58,0,0,1,.2-.295,1.067,1.067,0,0,1,.489-.12l.111-.009v-.488h-3.708v.5h.307a.614.614,0,0,1,.366.108.517.517,0,0,1,.2.234,2.445,2.445,0,0,1,.052.676v1.869a2.878,2.878,0,0,1-.465.17,1.907,1.907,0,0,1-.5.068,1.755,1.755,0,0,1-1.2-.445,2.7,2.7,0,0,1-.746-1.427,10.268,10.268,0,0,1-.238-2.332,10.423,10.423,0,0,1,.219-2.141,3.37,3.37,0,0,1,.723-1.589,1.583,1.583,0,0,1,1.239-.55,2.035,2.035,0,0,1,1.453.668,4.327,4.327,0,0,1,1.027,2l.024.091h.411V85.047h-.411l-.024.09a1.208,1.208,0,0,1-.207.485.239.239,0,0,1-.178.1,2.685,2.685,0,0,1-.56-.246,4.25,4.25,0,0,0-.772-.322,3.963,3.963,0,0,0-.989-.115,3.593,3.593,0,0,0-2.941,1.5,5.784,5.784,0,0,0-1.155,3.64,5.985,5.985,0,0,0,.377,2.175,4.63,4.63,0,0,0,.823,1.364" transform="translate(-46.05 -11.739)" fill="#20992a"/>
          <path id="Path_67" data-name="Path 67" d="M349.85,91.677l-.02.1A3.543,3.543,0,0,1,349,93.56a2.015,2.015,0,0,1-1.515.572h-.425a.6.6,0,0,1-.365-.084.44.44,0,0,1-.147-.222,4.587,4.587,0,0,1-.046-.912V90.4a1.188,1.188,0,0,1,.59.152,1.328,1.328,0,0,1,.423.63,4.467,4.467,0,0,1,.258,1.276l.009.111h.435V87.434h-.435l-.009.112a4.126,4.126,0,0,1-.374,1.6.917.917,0,0,1-.877.5h-.02V86.076h.615a3.2,3.2,0,0,1,1.056.115,1.484,1.484,0,0,1,.725.6,3.93,3.93,0,0,1,.41,1.408l.015.1h.428V85.3h-6.211v.5h.358a.63.63,0,0,1,.465.161.571.571,0,0,1,.158.3,6.534,6.534,0,0,1,.022.759V93.17a3.5,3.5,0,0,1-.05.834.51.51,0,0,1-.171.272.676.676,0,0,1-.424.12h-.358v.5h6.393l.346-3.214Z" transform="translate(-47.425 -11.775)" fill="#20992a"/>
          <path id="Path_68" data-name="Path 68" d="M357.314,85.673l.042.12h.122a.76.76,0,0,1,.7.329,2.215,2.215,0,0,1,.165,1.075v3.586L355.018,85.3H352.3v.493l.116,0a.843.843,0,0,1,.435.109,1.449,1.449,0,0,1,.365.453l.134.186v6.6a1.742,1.742,0,0,1-.205.983.875.875,0,0,1-.725.269l-.12,0v.495h2.772v-.5h-.29a.766.766,0,0,1-.558-.246,1.486,1.486,0,0,1-.245-1.007V87.626l4.63,7.48h.368V87.2a3.322,3.322,0,0,1,.081-.9.691.691,0,0,1,.2-.335,1.353,1.353,0,0,1,.553-.172l.1-.016V85.3h-2.6Z" transform="translate(-48.634 -11.775)" fill="#20992a"/>
          <path id="Path_69" data-name="Path 69" d="M368.694,85.157a.914.914,0,0,1-.136.452.243.243,0,0,1-.195.115,1.863,1.863,0,0,1-.559-.235,3.641,3.641,0,0,0-1.644-.44,3.35,3.35,0,0,0-2,.685,4.656,4.656,0,0,0-1.48,1.911,6.33,6.33,0,0,0-.544,2.588,6.188,6.188,0,0,0,.491,2.442,3.966,3.966,0,0,0,1.412,1.776,3.659,3.659,0,0,0,2.094.622,3.17,3.17,0,0,0,1.579-.385,4.106,4.106,0,0,0,1.308-1.3V92.176l-.224.341a4.732,4.732,0,0,1-1.147,1.3,2.015,2.015,0,0,1-1.164.365,1.656,1.656,0,0,1-1.248-.49,3.165,3.165,0,0,1-.726-1.5,10.012,10.012,0,0,1-.239-2.258,7.568,7.568,0,0,1,.327-2.282,2.818,2.818,0,0,1,.781-1.265,1.688,1.688,0,0,1,1.143-.471,1.8,1.8,0,0,1,1.34.637,3.7,3.7,0,0,1,.832,1.886l.018.1h.429V85.048h-.437Z" transform="translate(-49.992 -11.741)" fill="#20992a"/>
          <path id="Path_70" data-name="Path 70" d="M379.078,85.774V85.3h-2.419v.49l.113.008a.93.93,0,0,1,.582.173.288.288,0,0,1,.1.223,4.117,4.117,0,0,1-.467,1.322l-1.168,2.566-1.179-2.838a4.636,4.636,0,0,1-.413-1.2.231.231,0,0,1,.088-.161.5.5,0,0,1,.348-.083h.274v-.5h-3.66v.5l.121,0a.623.623,0,0,1,.459.18,5.773,5.773,0,0,1,.68,1.359l1.669,3.962v1.875a3.274,3.274,0,0,1-.053.834.522.522,0,0,1-.174.273.668.668,0,0,1-.424.119h-.5v.5H377.3v-.5h-.521a.6.6,0,0,1-.379-.109.532.532,0,0,1-.189-.254,4,4,0,0,1-.052-.862l-.01-2.211,1.545-3.389a7.53,7.53,0,0,1,.809-1.546.8.8,0,0,1,.473-.231Z" transform="translate(-51.254 -11.775)" fill="#20992a"/>
          <path id="Path_71" data-name="Path 71" d="M381.835,94.2a1.048,1.048,0,0,0-.873-.51.9.9,0,0,0-.733.392,1.4,1.4,0,0,0-.289.873,1.359,1.359,0,0,0,.252.815.772.772,0,0,0,.637.367.57.57,0,0,0,.442-.17.25.25,0,0,1,.02.119,2.369,2.369,0,0,1-.262,1.067,2.018,2.018,0,0,1-.839.84l-.061.035v.553l.167-.066a2.805,2.805,0,0,0,1.409-1.176,3.5,3.5,0,0,0,.472-1.814,2.29,2.29,0,0,0-.342-1.327" transform="translate(-52.45 -12.934)" fill="#20992a"/>
          <path id="Path_72" data-name="Path 72" d="M170.267,107.885,168.355,102h-3.124v.5h.349a.652.652,0,0,1,.4.11.519.519,0,0,1,.195.251,3.6,3.6,0,0,1,.053.849v5.918c0,.409,0,.64-.009.684a1.446,1.446,0,0,1-.149.465.625.625,0,0,1-.261.239.746.746,0,0,1-.353.086h-.227v.5h2.684v-.5h-.122a.9.9,0,0,1-.633-.184.91.91,0,0,1-.262-.494,7.163,7.163,0,0,1-.024-.829v-5.823l2.566,7.827h.3l2.525-7.874v6.153a3.314,3.314,0,0,1-.053.832.549.549,0,0,1-.169.273.69.69,0,0,1-.429.12h-.353v.5h3.966v-.5h-.353a.647.647,0,0,1-.405-.111.521.521,0,0,1-.193-.253,3.74,3.74,0,0,1-.053-.861v-6.166a3.26,3.26,0,0,1,.052-.822.545.545,0,0,1,.17-.269.683.683,0,0,1,.429-.119h.353V102h-3.114Z" transform="translate(-22.81 -14.081)" fill="#20992a"/>
          <path id="Path_73" data-name="Path 73" d="M177.523,102.5h.358a.649.649,0,0,1,.4.109.517.517,0,0,1,.192.255,3.66,3.66,0,0,1,.052.859v6.153a3.408,3.408,0,0,1-.052.833.515.515,0,0,1-.168.272.686.686,0,0,1-.426.12h-.358v.5h3.971v-.5h-.359a.642.642,0,0,1-.4-.11.542.542,0,0,1-.195-.255,3.464,3.464,0,0,1-.055-.859v-6.153a3.471,3.471,0,0,1,.051-.829.555.555,0,0,1,.176-.275.674.674,0,0,1,.424-.119h.359V102h-3.971Z" transform="translate(-24.507 -14.081)" fill="#20992a"/>
          <path id="Path_74" data-name="Path 74" d="M187.826,102.375l.04.121h.121a.761.761,0,0,1,.7.329,2.21,2.21,0,0,1,.165,1.074v3.586L185.529,102H182.81v.493l.116,0a.842.842,0,0,1,.436.11,1.461,1.461,0,0,1,.364.453l.135.184v6.6a1.713,1.713,0,0,1-.208.983.866.866,0,0,1-.724.269h-.12v.5h2.773v-.5h-.29a.76.76,0,0,1-.557-.247,1.479,1.479,0,0,1-.246-1.005v-5.517l4.63,7.48h.368V103.9a3.443,3.443,0,0,1,.081-.9.693.693,0,0,1,.2-.336,1.349,1.349,0,0,1,.553-.172l.1-.016V102h-2.6Z" transform="translate(-25.236 -14.081)" fill="#20992a"/>
          <path id="Path_75" data-name="Path 75" d="M192.4,102.5h.358a.649.649,0,0,1,.4.109.52.52,0,0,1,.192.255,3.66,3.66,0,0,1,.052.859v6.153a3.328,3.328,0,0,1-.053.833.5.5,0,0,1-.168.272.689.689,0,0,1-.425.12H192.4v.5h3.971v-.5h-.359a.643.643,0,0,1-.4-.11.546.546,0,0,1-.195-.256,3.548,3.548,0,0,1-.055-.859v-6.153a3.3,3.3,0,0,1,.053-.83.543.543,0,0,1,.174-.274.674.674,0,0,1,.424-.119h.359V102H192.4Z" transform="translate(-26.561 -14.081)" fill="#20992a"/>
          <path id="Path_76" data-name="Path 76" d="M201.231,105.528a10.218,10.218,0,0,1-1.123-.793,2.079,2.079,0,0,1-.463-.6,1.263,1.263,0,0,1,.186-1.29.92.92,0,0,1,.755-.332,1.582,1.582,0,0,1,1.2.671,3.494,3.494,0,0,1,.722,1.825l.013.105h.447l-.061-3.36h-.383l-.016.1a1.391,1.391,0,0,1-.127.48.131.131,0,0,1-.116.059,1.059,1.059,0,0,1-.432-.205,3.027,3.027,0,0,0-.628-.319,2.187,2.187,0,0,0-.713-.117,2.061,2.061,0,0,0-1.673.832,3.091,3.091,0,0,0-.652,1.979,3.2,3.2,0,0,0,.238,1.247,3.329,3.329,0,0,0,.678,1.024,8.412,8.412,0,0,0,1.42,1.086,5.921,5.921,0,0,1,.946.71,1.8,1.8,0,0,1,.383.553,1.49,1.49,0,0,1,.125.594,1.376,1.376,0,0,1-.322.9,1.033,1.033,0,0,1-.844.377,1.768,1.768,0,0,1-1.329-.74,4.5,4.5,0,0,1-.865-2.214l-.016-.1h-.42v3.774h.4l.028-.083a.861.861,0,0,1,.214-.369.339.339,0,0,1,.207-.107.788.788,0,0,1,.356.123,4.273,4.273,0,0,0,.777.348,2.377,2.377,0,0,0,.671.094,2.32,2.32,0,0,0,1.864-.89,3.2,3.2,0,0,0,.724-2.094,3.259,3.259,0,0,0-.448-1.7,5.484,5.484,0,0,0-1.726-1.564" transform="translate(-27.356 -14.046)" fill="#20992a"/>
          <path id="Path_77" data-name="Path 77" d="M205.414,104.772h.429l.013-.107a2.93,2.93,0,0,1,.552-1.532,1.167,1.167,0,0,1,.952-.355h.393v7.095a3.443,3.443,0,0,1-.052.832.535.535,0,0,1-.174.273.689.689,0,0,1-.425.119h-.359v.5h3.977v-.5h-.359a.651.651,0,0,1-.407-.11.541.541,0,0,1-.194-.254,3.553,3.553,0,0,1-.054-.859v-7.095h.409a1.266,1.266,0,0,1,.633.105,1.51,1.51,0,0,1,.521.565,4.69,4.69,0,0,1,.36,1.225l.02.1h.412V102h-6.647Z" transform="translate(-28.357 -14.081)" fill="#20992a"/>
          <path id="Path_78" data-name="Path 78" d="M221.408,110.9a4.735,4.735,0,0,1-.46-.74l-1.646-3.042a2.219,2.219,0,0,0,.932-.632,2.691,2.691,0,0,0,.6-1.788,2.935,2.935,0,0,0-.4-1.54,2.088,2.088,0,0,0-1.038-.917A5.713,5.713,0,0,0,217.46,102h-3.434v.5h.122a1.185,1.185,0,0,1,.6.1.5.5,0,0,1,.2.253,3.471,3.471,0,0,1,.064.915v6.07a3.485,3.485,0,0,1-.063.91.531.531,0,0,1-.2.256,1.149,1.149,0,0,1-.6.1h-.122v.5h3.892v-.5H217.8a1.156,1.156,0,0,1-.6-.1.5.5,0,0,1-.2-.253,3.472,3.472,0,0,1-.064-.915v-2.5h.272l2.3,4.263h2.439V111.1l-.112-.008a.646.646,0,0,1-.42-.2m-4.478-8.156h.44a1.305,1.305,0,0,1,1.129.461,2.55,2.55,0,0,1,.358,1.508,2.825,2.825,0,0,1-.2,1.148,1.121,1.121,0,0,1-.513.576,2.534,2.534,0,0,1-1.04.162h-.178Z" transform="translate(-29.546 -14.081)" fill="#20992a"/>
          <path id="Path_79" data-name="Path 79" d="M228.37,102.487l.113.009a.931.931,0,0,1,.584.175.285.285,0,0,1,.1.221,4.124,4.124,0,0,1-.468,1.323l-1.166,2.567-1.181-2.839a4.655,4.655,0,0,1-.412-1.2.231.231,0,0,1,.088-.162.506.506,0,0,1,.348-.083h.274V102h-3.661v.5l.12,0a.623.623,0,0,1,.46.18,5.733,5.733,0,0,1,.679,1.36L225.914,108v1.876a3.348,3.348,0,0,1-.052.831.531.531,0,0,1-.176.275.675.675,0,0,1-.423.118h-.5v.5h4.245v-.5h-.521a.587.587,0,0,1-.378-.109.538.538,0,0,1-.189-.253,3.625,3.625,0,0,1-.052-.863l-.011-2.212,1.546-3.39a7.477,7.477,0,0,1,.81-1.546.8.8,0,0,1,.471-.23l.1-.018V102H228.37Z" transform="translate(-30.783 -14.08)" fill="#20992a"/>
          <path id="Path_80" data-name="Path 80" d="M242.719,101.841c-.065,0-.131,0-.184.005s-.123-.005-.184-.005a3.179,3.179,0,0,0-2.576,1.358,5.629,5.629,0,0,0-1.106,3.548,6.163,6.163,0,0,0,.847,3.271,3.521,3.521,0,0,0,6.156-.085,6.206,6.206,0,0,0,.81-3.192,5.674,5.674,0,0,0-1.089-3.543,3.24,3.24,0,0,0-2.674-1.356m-1.283,8.448a7.434,7.434,0,0,1-.627-3.481,8.9,8.9,0,0,1,.406-3.046c.324-.83.774-1.233,1.375-1.233a1.206,1.206,0,0,1,.856.347,2.735,2.735,0,0,1,.636,1.246,10.808,10.808,0,0,1,.258,2.743,10.093,10.093,0,0,1-.253,2.5,2.9,2.9,0,0,1-.687,1.354,1.135,1.135,0,0,1-.821.311,1.256,1.256,0,0,1-1.144-.738" transform="translate(-32.948 -14.059)" fill="#20992a"/>
          <path id="Path_81" data-name="Path 81" d="M248.676,102.5h.359a.646.646,0,0,1,.4.109.522.522,0,0,1,.192.256,3.6,3.6,0,0,1,.053.858v6.153a3.371,3.371,0,0,1-.053.833.515.515,0,0,1-.168.272.689.689,0,0,1-.425.12h-.359v.5h3.972v-.5h-.359a.64.64,0,0,1-.4-.11.55.55,0,0,1-.195-.254,3.5,3.5,0,0,1-.054-.86v-2.741h.084a1.307,1.307,0,0,1,.921.39,2.7,2.7,0,0,1,.507,1.677l.009.112h.42v-4.94h-.419l-.01.111a3.442,3.442,0,0,1-.259,1.152,1.123,1.123,0,0,1-1.17.744h-.084v-3.6h.54a4.228,4.228,0,0,1,1.129.1,1.489,1.489,0,0,1,.812.592,2.918,2.918,0,0,1,.355,1.343l.01.112h.451V102h-6.259Z" transform="translate(-34.329 -14.081)" fill="#20992a"/>
          <path id="Path_82" data-name="Path 82" d="M269,110.86a4.743,4.743,0,0,1-.583-1.333l-2.6-7.753h-.276l-2.579,7.546a6.052,6.052,0,0,1-.592,1.378.872.872,0,0,1-.555.37l-.1.019v.476h2.614v-.485l-.109-.011a1.463,1.463,0,0,1-.637-.14.572.572,0,0,1-.195-.485,2.438,2.438,0,0,1,.142-.715l.272-.827h2.34l.352,1.081c.095.3.147.462.156.509a.978.978,0,0,1,.027.228.3.3,0,0,1-.075.228.773.773,0,0,1-.5.12h-.266v.5h3.693v-.485l-.109-.011a.6.6,0,0,1-.423-.206m-4.93-2.713.922-2.716.9,2.716Z" transform="translate(-36.13 -14.05)" fill="#20992a"/>
          <path id="Path_83" data-name="Path 83" d="M276.011,107.888h.306a.608.608,0,0,1,.366.107.527.527,0,0,1,.2.235,2.472,2.472,0,0,1,.052.675v1.868a2.867,2.867,0,0,1-.466.171,1.894,1.894,0,0,1-.5.068,1.767,1.767,0,0,1-1.2-.445,2.7,2.7,0,0,1-.744-1.428,10.207,10.207,0,0,1-.238-2.331,10.446,10.446,0,0,1,.219-2.142,3.369,3.369,0,0,1,.722-1.589,1.586,1.586,0,0,1,1.239-.55,2.042,2.042,0,0,1,1.454.667,4.337,4.337,0,0,1,1.025,2l.024.09h.41v-3.538h-.41l-.023.09a1.243,1.243,0,0,1-.205.485.25.25,0,0,1-.179.1,2.806,2.806,0,0,1-.56-.247,4.247,4.247,0,0,0-.773-.322,3.937,3.937,0,0,0-.988-.115,3.592,3.592,0,0,0-2.941,1.5,5.783,5.783,0,0,0-1.156,3.641,6.019,6.019,0,0,0,.377,2.176,4.641,4.641,0,0,0,.823,1.362,4.338,4.338,0,0,0,1.217.979,3.642,3.642,0,0,0,1.743.378,5.91,5.91,0,0,0,1.565-.208,6,6,0,0,0,1.452-.616l.059-.035v-2.014a2.176,2.176,0,0,1,.042-.6.557.557,0,0,1,.192-.295,1.07,1.07,0,0,1,.491-.119l.112-.01v-.487h-3.709Z" transform="translate(-37.5 -14.045)" fill="#20992a"/>
          <path id="Path_84" data-name="Path 84" d="M288.972,110.9a4.262,4.262,0,0,1-.459-.74l-1.647-3.043a2.217,2.217,0,0,0,.933-.631,2.688,2.688,0,0,0,.6-1.789,2.957,2.957,0,0,0-.395-1.54,2.1,2.1,0,0,0-1.039-.916,5.71,5.71,0,0,0-1.937-.244h-3.435v.5h.122a1.184,1.184,0,0,1,.6.1.5.5,0,0,1,.2.254,3.5,3.5,0,0,1,.063.914v6.071a3.464,3.464,0,0,1-.063.91.528.528,0,0,1-.2.255,1.136,1.136,0,0,1-.6.1h-.122v.5h3.892v-.5h-.122a1.16,1.16,0,0,1-.6-.1.5.5,0,0,1-.2-.255,3.479,3.479,0,0,1-.064-.913v-2.5h.273l2.3,4.263H289.5V111.1l-.113-.009a.642.642,0,0,1-.42-.2m-4.479-4.3v-3.855h.441a1.3,1.3,0,0,1,1.128.461,2.546,2.546,0,0,1,.358,1.508,2.826,2.826,0,0,1-.2,1.148,1.119,1.119,0,0,1-.513.575,2.514,2.514,0,0,1-1.04.163Z" transform="translate(-38.873 -14.08)" fill="#20992a"/>
          <path id="Path_85" data-name="Path 85" d="M291.128,102.5h.359a.651.651,0,0,1,.4.109.518.518,0,0,1,.191.255,3.649,3.649,0,0,1,.053.859v6.153a3.215,3.215,0,0,1-.053.833.5.5,0,0,1-.167.272.689.689,0,0,1-.425.12h-.359v.5H295.1v-.5h-.359a.643.643,0,0,1-.4-.11.548.548,0,0,1-.195-.256,3.533,3.533,0,0,1-.055-.859v-6.153a3.3,3.3,0,0,1,.053-.83.532.532,0,0,1,.176-.274.673.673,0,0,1,.423-.119h.359V102h-3.971Z" transform="translate(-40.19 -14.081)" fill="#20992a"/>
          <path id="Path_86" data-name="Path 86" d="M303.29,101.859a.92.92,0,0,1-.137.453.241.241,0,0,1-.194.114,1.824,1.824,0,0,1-.559-.234,3.624,3.624,0,0,0-1.645-.441,3.343,3.343,0,0,0-2,.686,4.649,4.649,0,0,0-1.48,1.91,6.32,6.32,0,0,0-.544,2.588,6.182,6.182,0,0,0,.49,2.442,3.99,3.99,0,0,0,1.411,1.776,3.673,3.673,0,0,0,2.1.621,3.15,3.15,0,0,0,1.577-.385,4.061,4.061,0,0,0,1.309-1.3v-1.214l-.224.342a4.7,4.7,0,0,1-1.147,1.3,2.009,2.009,0,0,1-1.164.365,1.675,1.675,0,0,1-1.248-.491,3.175,3.175,0,0,1-.727-1.5,10.008,10.008,0,0,1-.238-2.259,7.516,7.516,0,0,1,.327-2.282,2.807,2.807,0,0,1,.779-1.264,1.664,1.664,0,0,1,1.144-.471,1.777,1.777,0,0,1,1.339.637,3.683,3.683,0,0,1,.833,1.885l.018.1h.429V101.75H303.3Z" transform="translate(-40.963 -14.046)" fill="#20992a"/>
          <path id="Path_87" data-name="Path 87" d="M310.926,102.5h.122a1.081,1.081,0,0,1,.6.138.63.63,0,0,1,.207.314,2.806,2.806,0,0,1,.091.855v3.815a7.317,7.317,0,0,1-.2,2.051,1.942,1.942,0,0,1-.572.889,1.376,1.376,0,0,1-.907.313,1.156,1.156,0,0,1-.759-.242,1.368,1.368,0,0,1-.438-.622,5.988,5.988,0,0,1-.138-1.623V103.8a4.14,4.14,0,0,1,.059-.962.5.5,0,0,1,.178-.255.9.9,0,0,1,.5-.09h.305V102h-3.924v.377l.053.121h.122a.91.91,0,0,1,.5.089.512.512,0,0,1,.191.253,3.988,3.988,0,0,1,.061.965v4.58a5.09,5.09,0,0,0,.294,1.9,2.555,2.555,0,0,0,1.019,1.188,2.78,2.78,0,0,0,1.5.343,2.552,2.552,0,0,0,1.836-.647,2.808,2.808,0,0,0,.842-1.406,12.183,12.183,0,0,0,.168-2.407V103.8a3,3,0,0,1,.064-.761.775.775,0,0,1,.248-.414.656.656,0,0,1,.423-.132h.269V102h-2.71Z" transform="translate(-42.25 -14.081)" fill="#20992a"/>
          <path id="Path_88" data-name="Path 88" d="M321.9,108.162a7.926,7.926,0,0,1-.515,1.645,1.983,1.983,0,0,1-.615.781,1.511,1.511,0,0,1-.876.24H319.3a1.8,1.8,0,0,1-.578-.047.375.375,0,0,1-.189-.224,3.623,3.623,0,0,1-.057-.877v-5.96a3.275,3.275,0,0,1,.053-.83.539.539,0,0,1,.173-.274.675.675,0,0,1,.425-.119h.432V102h-4.044v.5h.358a.651.651,0,0,1,.4.109.516.516,0,0,1,.193.254,3.82,3.82,0,0,1,.051.859v6.153a3.489,3.489,0,0,1-.051.833.516.516,0,0,1-.168.272.7.7,0,0,1-.427.12h-.358v.5h6.565l.286-3.525h-.444Z" transform="translate(-43.556 -14.081)" fill="#20992a"/>
          <path id="Path_89" data-name="Path 89" d="M323.418,104.772h.429l.013-.107a2.93,2.93,0,0,1,.552-1.532,1.167,1.167,0,0,1,.952-.355h.394v7.095a3.323,3.323,0,0,1-.053.832.53.53,0,0,1-.175.273.681.681,0,0,1-.424.119h-.358v.5h3.977v-.5h-.36a.649.649,0,0,1-.407-.11.541.541,0,0,1-.194-.254,3.517,3.517,0,0,1-.055-.859v-7.095h.409a1.267,1.267,0,0,1,.634.105,1.517,1.517,0,0,1,.521.565,4.693,4.693,0,0,1,.36,1.225l.02.1h.412V102h-6.647Z" transform="translate(-44.647 -14.081)" fill="#20992a"/>
          <path id="Path_90" data-name="Path 90" d="M336.964,102.5h.122a1.075,1.075,0,0,1,.6.138.633.633,0,0,1,.208.314,2.8,2.8,0,0,1,.091.855v3.815a7.316,7.316,0,0,1-.2,2.051,1.94,1.94,0,0,1-.572.889,1.376,1.376,0,0,1-.908.313,1.157,1.157,0,0,1-.759-.242,1.392,1.392,0,0,1-.438-.622,6.014,6.014,0,0,1-.137-1.623V103.8a4.052,4.052,0,0,1,.06-.962.494.494,0,0,1,.177-.255.9.9,0,0,1,.5-.09h.305V102h-3.923v.377l.053.121h.122a.915.915,0,0,1,.5.089.5.5,0,0,1,.19.253,3.8,3.8,0,0,1,.063.965v4.58a5.117,5.117,0,0,0,.292,1.9,2.549,2.549,0,0,0,1.019,1.188,2.786,2.786,0,0,0,1.5.343,2.552,2.552,0,0,0,1.836-.647,2.808,2.808,0,0,0,.842-1.406,12.043,12.043,0,0,0,.167-2.407V103.8a2.966,2.966,0,0,1,.065-.761.773.773,0,0,1,.248-.414.659.659,0,0,1,.423-.132h.269V102h-2.71Z" transform="translate(-45.844 -14.081)" fill="#20992a"/>
          <path id="Path_91" data-name="Path 91" d="M348.934,110.9a4.738,4.738,0,0,1-.46-.74l-1.645-3.042a2.218,2.218,0,0,0,.932-.632,2.688,2.688,0,0,0,.6-1.788,2.936,2.936,0,0,0-.4-1.54,2.088,2.088,0,0,0-1.038-.917,5.713,5.713,0,0,0-1.937-.243h-3.434v.5h.121a1.185,1.185,0,0,1,.6.1.494.494,0,0,1,.2.253,3.468,3.468,0,0,1,.064.915v6.07a3.484,3.484,0,0,1-.063.91.53.53,0,0,1-.2.256,1.148,1.148,0,0,1-.6.1h-.121v.5h3.892v-.5h-.122a1.156,1.156,0,0,1-.6-.1.5.5,0,0,1-.2-.253,3.469,3.469,0,0,1-.064-.915v-2.5h.272l2.3,4.263h2.439V111.1l-.112-.008a.646.646,0,0,1-.42-.2m-4.478-8.156h.44a1.305,1.305,0,0,1,1.129.461,2.55,2.55,0,0,1,.358,1.508,2.825,2.825,0,0,1-.2,1.148,1.12,1.12,0,0,1-.513.576,2.533,2.533,0,0,1-1.039.162h-.178Z" transform="translate(-47.15 -14.081)" fill="#20992a"/>
          <path id="Path_92" data-name="Path 92" d="M357.381,108.476a3.544,3.544,0,0,1-.832,1.788,2.045,2.045,0,0,1-1.515.571h-.426a.6.6,0,0,1-.364-.083.424.424,0,0,1-.147-.222,4.681,4.681,0,0,1-.046-.912v-2.512a1.178,1.178,0,0,1,.589.153,1.322,1.322,0,0,1,.426.629,4.518,4.518,0,0,1,.256,1.276l.01.111h.434v-5.138h-.434l-.01.112a4.116,4.116,0,0,1-.374,1.6.915.915,0,0,1-.876.5h-.021v-3.566h.615a3.2,3.2,0,0,1,1.058.115,1.488,1.488,0,0,1,.724.6,3.934,3.934,0,0,1,.41,1.408l.016.1h.427V102h-6.21v.5h.358a.635.635,0,0,1,.465.162.564.564,0,0,1,.157.3,5.835,5.835,0,0,1,.025.758v6.153a3.229,3.229,0,0,1-.053.833.5.5,0,0,1-.169.271.681.681,0,0,1-.424.119h-.358v.5h6.392l.348-3.213H357.4Z" transform="translate(-48.467 -14.081)" fill="#20992a"/>
          <path id="Path_93" data-name="Path 93" d="M190.678,69.96l1.033,1.771a22.89,22.89,0,0,1-2.763,1.643,16.353,16.353,0,0,0,5.731.821l-.671,2.207q-1.833-.18-3.278-.436a18.61,18.61,0,0,1-9.861-6.262h-2.427v4.08q2.581-.359,3.847-.641l.413,2a43.584,43.584,0,0,1-8.828,1.078l-.336-2.028,2.763-.179V69.7h-2.814a17.931,17.931,0,0,1-1.445,6.544l-1.962-.693a20.082,20.082,0,0,0,1.42-7.8v-4.98a.492.492,0,0,1,.542-.539h21.787V64.16H173.8q-.259-.025-.259.257v3.362h20.651V69.7H183.682a17.232,17.232,0,0,0,2.969,2.489,30.529,30.529,0,0,0,4.027-2.233m2.245-16.246q.284-.025.284.257V60.8a.25.25,0,0,1-.284.283H171.6a.254.254,0,0,1-.258-.283V53.97a.227.227,0,0,1,.258-.257h6.35V51.969h2.143v1.745h4.362V51.969H186.6v1.745Zm-14.972,1.72h-4.388q-.1,0-.078.078v1.077h4.466Zm0,2.875h-4.466v.95l.078.1h4.388Zm14.895,8.521H175.473v-1.72h17.373Zm-8.389-11.4h-4.362v1.155h4.362Zm0,2.875h-4.362V59.36h4.362Zm2.143-1.72h4.466V55.511l-.1-.078H186.6Zm0,2.772h4.362l.1-.1v-.95H186.6Z" transform="translate(-23.479 -7.174)" fill="#008a32"/>
          <path id="Path_94" data-name="Path 94" d="M214.7,76.223h-2.143v-5.21A28.6,28.6,0,0,1,202.3,74.991l-.826-2.156a27.673,27.673,0,0,0,10.325-3.7h-9.576V67.112h10.325V65.649h-8.983V63.826h8.983V62.261h-9.706V60.439h5.809a17.523,17.523,0,0,0-1.033-2.387h-5.705V56.024h4.492a14.425,14.425,0,0,0-1.575-2.7l1.756-1.077a14.224,14.224,0,0,1,1.858,3.182l-1.11.59h3.1V51.969h2.039v4.055h2.4V51.969h2.039v4.055h2.556l-.8-.59a19.458,19.458,0,0,0,2.168-3.285l1.756,1.077a19.007,19.007,0,0,1-1.782,2.8h4.362v2.027h-5.988l-.93,2.387h6.092v1.822H214.7v1.565h8.932v1.823H214.7v1.463h10.274v2.027h-9.19a27.114,27.114,0,0,0,9.99,3.952l-1.109,2a32.819,32.819,0,0,1-9.964-4.311Zm1.29-15.784,1.033-2.387h-7.1l.929,2.387Z" transform="translate(-27.814 -7.174)" fill="#008a32"/>
          <path id="Path_95" data-name="Path 95" d="M242.657,56.588l1.91.667a48.306,48.306,0,0,1-1.523,4.825h3.33v2.027H233.028V62.081H240.9a31.7,31.7,0,0,0,1.756-5.492m-4.1-4.619H240.8v1.9h5.06V55.9H233.544V53.868h5.008Zm-2.762,24.073h-2.143V66.418a.3.3,0,0,1,.335-.334h11.049q.464,0,.465.436v9.522h-2.143V74.887h-7.563Zm.9-19.326a31.839,31.839,0,0,1,1.342,4.311l-1.962.437a32.181,32.181,0,0,0-1.316-4.184Zm6.659,16.144V68.394c0-.188-.1-.283-.309-.283H236.1c-.224,0-.328.1-.309.309v4.44Zm6.118-17.735V76.3h-2.245V53.072c.016-.257.145-.385.387-.385H255.2l1.446,1.129-2.426,7.777a.8.8,0,0,0,.1.616,16.953,16.953,0,0,1,2.452,4.287q.981,3.7-.335,5.851a3.36,3.36,0,0,1-1.549,1.335q-1.7.668-4.621-.539l.284-2.438q2.323,1.18,3.3.9,1.471-.385,1.239-3.362a15.729,15.729,0,0,0-2.994-5.774q-.259-.385-.207-.565l2.091-6.75.052-.334h-4.26a.273.273,0,0,0-.309.308" transform="translate(-32.169 -7.174)" fill="#008a32"/>
          <path id="Path_96" data-name="Path 96" d="M284.519,69.96l1.033,1.771a22.981,22.981,0,0,1-2.763,1.643,16.355,16.355,0,0,0,5.732.821l-.672,2.207q-1.833-.18-3.277-.436A18.607,18.607,0,0,1,274.71,69.7h-2.428v4.08q2.581-.359,3.848-.641l.413,2a43.591,43.591,0,0,1-8.828,1.078l-.337-2.028,2.763-.179V69.7h-2.815a17.916,17.916,0,0,1-1.445,6.544l-1.962-.693a20.069,20.069,0,0,0,1.42-7.8v-4.98a.492.492,0,0,1,.542-.539h21.787V64.16h-20.03q-.26-.025-.259.257v3.362h20.652V69.7H277.523a17.168,17.168,0,0,0,2.969,2.489,30.531,30.531,0,0,0,4.027-2.233m2.245-16.246c.19-.016.285.069.285.257V60.8a.251.251,0,0,1-.285.283H265.441a.254.254,0,0,1-.257-.283V53.97a.227.227,0,0,1,.257-.257h6.35V51.969h2.143v1.745H278.3V51.969h2.144v1.745Zm-14.972,1.72H267.4q-.1,0-.078.078v1.077h4.466Zm0,2.875h-4.466v.95l.078.1h4.388Zm14.895,8.521H269.313v-1.72h17.373Zm-8.389-11.4h-4.362v1.155H278.3Zm0,2.875h-4.362V59.36H278.3Zm2.144-1.72h4.466V55.511l-.1-.078H280.44Zm0,2.772H284.8l.1-.1v-.95H280.44Z" transform="translate(-36.433 -7.174)" fill="#008a32"/>
          <path id="Path_97" data-name="Path 97" d="M300.794,76.136h-2.039V67.615a31.369,31.369,0,0,1-1.729,3.465l-2.065-.642a23.459,23.459,0,0,0,3.3-7.032H295.4V61.379h3.356V52.088h2.039v9.291h2.891v2.027h-2.891v.128a47.183,47.183,0,0,1,3.381,4.209l-1.6,1.232-1.781-2.566Zm-3.64-22.457a33.826,33.826,0,0,1,1.084,6.031l-1.91.18a33.994,33.994,0,0,0-1.058-5.9Zm7.177.334a53.867,53.867,0,0,1-1.317,5.9l-1.7-.539a37.345,37.345,0,0,0,1.265-5.774Zm6.3,19.095h-5.937v-1.72h5.937v-1.1h-5.421A.254.254,0,0,1,304.95,70V63.278a.227.227,0,0,1,.258-.257H318.27q.283-.025.284.257V70a.25.25,0,0,1-.284.283h-5.6v1.1h6.092v1.72h-6.092v1.1h7.125v1.822H303.555V74.212h7.073Zm8.854-10.78H304.072v-1.72h15.411Zm-1.523-2.618H305.311a.254.254,0,0,1-.259-.282V52.909a.228.228,0,0,1,.259-.257h12.648q.284-.025.284.257v6.519a.25.25,0,0,1-.284.282m-7.331,4.928h-3.562q-.1,0-.078.078V65.9h3.64Zm0,2.875h-3.64v1.052l.078.1h3.562ZM316.2,55.425V54.346l-.078-.077H307.17c-.069,0-.095.026-.078.077v1.078Zm-9.113,1.617v.949l.078.1h8.957l.078-.1v-.949Zm5.576,8.854h3.846v-1.18l-.078-.078h-3.768Zm0,2.772h3.768l.078-.1V67.513h-3.846Z" transform="translate(-40.719 -7.191)" fill="#008a32"/>
          <path id="Path_98" data-name="Path 98" d="M333.182,76.458H331.04V69.015q-2.067.462-3.847.693l-.774-2.053a56.979,56.979,0,0,0,8.932-2.1h-8.441V63.523h9.964V61.957h-7.28V59.929h7.28V58.364h-8.957a.276.276,0,0,1-.285-.308v-5.03c.017-.188.112-.283.285-.283h21.476c.207,0,.31.095.31.283v5.03a.273.273,0,0,1-.31.308H339.119v1.565H345v1.155l3.279-2.182,1.187,1.771-4.7,2.849h5.7V65.55h-9.628l-3.433,1.438-.285.128h10.61q.721,0,.722.693v8.649h-2.142V75.405h-13.14Zm1.058-21.893h-4.388q-.1,0-.078.078v1.8l.078.1h4.388ZM346.321,70.4V69.22q0-.282-.31-.282H333.466q-.31,0-.284.282V70.4Zm-13.14,3.182h13.139v-1.36H333.182Zm7.873-19.018h-4.673v1.976h4.673Zm2.452,7.392h-4.388v1.565h1.317Zm-.309-5.416h4.259l.1-.1v-1.8l-.1-.078H343.2Z" transform="translate(-45.061 -7.281)" fill="#008a32"/>
          <path id="Path_99" data-name="Path 99" d="M51.8.016A14.349,14.349,0,0,1,66.841,13.51a14.416,14.416,0,0,1-28.8,1.265A14.252,14.252,0,0,1,51.8.016" transform="translate(-5.249 0)" fill="#f38200"/>
          <path id="Path_100" data-name="Path 100" d="M91.36,33.7a12.317,12.317,0,0,1,2.948-.361,3.355,3.355,0,0,1-1.965-.542,1.98,1.98,0,0,1-.983.24c-.614-.06-1.167-.24-1.72-.24-.246.9-.8.421-1.228.843a6.1,6.1,0,0,0,2.948.06" transform="translate(-12.205 -4.528)" fill="#20992a"/>
          <path id="Path_101" data-name="Path 101" d="M109.753,36.648v-.121l-1.658-1.264c-.122-.06-.245-.181-.368-.241-.491-.121-.983-.181-1.289.3.553.3,1.105.663,1.658.9a2.852,2.852,0,0,0,1.658.421" transform="translate(-14.693 -4.823)" fill="#20992a"/>
          <path id="Path_102" data-name="Path 102" d="M101.311,34.1a1.729,1.729,0,0,0,.8-.06c.246-.843-.061-.663-.368-.663a.927.927,0,0,1-.43-.06c-.307-.12-.553-.361-.859-.18-.062.3.246.542.429.783a.563.563,0,0,0,.43.181" transform="translate(-13.866 -4.566)" fill="#20992a"/>
          <path id="Path_103" data-name="Path 103" d="M104.149,34.661c.368.121.8.181.921.06l-.062-.181a.54.54,0,0,0-.675-.24c-.062,0-.123-.06-.184-.06-.184-.181-.369-.482-.615-.6.062.542-.429.24-.307.723a5.458,5.458,0,0,0,.921.3" transform="translate(-14.248 -4.644)" fill="#20992a"/>
          <path id="Path_104" data-name="Path 104" d="M99.36,33.62c.061-.361-.123-.421-.307-.542l-.491-.06a6.474,6.474,0,0,0-.8-.241c-.43-.12-.921-.24-1.044,0,.061.181-.676.362-.615.543a14.017,14.017,0,0,0,1.658.3,4.539,4.539,0,0,0,1.6,0" transform="translate(-13.267 -4.505)" fill="#20992a"/>
          <path id="Path_105" data-name="Path 105" d="M102.416,39.05c-.061-.121-.614-.181-1.105-.241a2.614,2.614,0,0,0-.86.06c-.061.121.369.241.86.422a11.206,11.206,0,0,0,1.781.422c.061-.121-.615-.482-.676-.663" transform="translate(-13.866 -5.357)" fill="#20992a"/>
          <path id="Path_106" data-name="Path 106" d="M105.368,40.061l.307.542a15.659,15.659,0,0,0,2.272.542.465.465,0,0,0,.307-.06,1.32,1.32,0,0,0-.307-.24,4.715,4.715,0,0,0-2.579-.784" transform="translate(-14.546 -5.525)" fill="#20992a"/>
          <path id="Path_107" data-name="Path 107" d="M114.036,42.756a1.179,1.179,0,0,0-.983-.181c-.184.241.184.483.246.723.246.121.491.3.737.422a1.277,1.277,0,0,0,1.044.06,5.548,5.548,0,0,0-1.044-1.024" transform="translate(-15.6 -5.871)" fill="#20992a"/>
          <path id="Path_108" data-name="Path 108" d="M110.439,41.6c-.123.06-.307-.121-.369.181.308.542.615.361.983.421a.643.643,0,0,1,.491.482c.184-.06.553-.121.491-.361-.307-.3-.675-.241-.983-.362a2.31,2.31,0,0,1-.614-.361" transform="translate(-15.195 -5.743)" fill="#20992a"/>
          <path id="Path_109" data-name="Path 109" d="M114.109,51.746c.062.6.553.3.615.844,0,.181-.123.361-.246.3-.369-.361-.8-.18-1.167-.482a1.311,1.311,0,0,1-.8-1.264c-.307-.121-.8-.723-1.044-.121-.307,0-.614-.3-.8-.663a2.9,2.9,0,0,0-1.289-.3c-.308,0-.8-.9-1.044-.059-.184.12-.43-.121-.553-.362,0-.421-1.6-.964-1.6-1.325.061-.121.184,0,.246-.121-.122-.241-.246-.421-.491-.421-.184-.121-.491-.422-.368-.663a9.174,9.174,0,0,1,2.947,1.084c.062.121-.061.18-.122.24.491.6,1.105.542,1.72.723a15.22,15.22,0,0,0,2.763,1.446c.368-.181-.123-.362-.123-.663.307-.542.553,1.024.921.722.675.422.122.422.737.422-1.228-2.47-1.535-1.446-3.132-3.194-.675-.12-.983-1.084-1.412-1.687-.43.06-.921-1.024-1.289-.6-.491.241-1.167-.24-1.536-.843-.553,0-.553-.723-1.044-.6a5.053,5.053,0,0,1-1.105-.6c-.246-.181-.43-.421-.676-.6a3.374,3.374,0,0,1-1.9-.6c-.061,0-.061-.06-.123-.06-.184-.843-.737-.121-1.044-.542-.429.121-.859-.181-1.289-.3a1.241,1.241,0,0,0-.676-.06,12.826,12.826,0,0,0-2.825-.9,6.537,6.537,0,0,1-1.044-.24c-.8.3-.368-1.446-1.228-.965-.061.121-.061.422-.184.422h-.061a1.229,1.229,0,0,1-.368-.542,23.755,23.755,0,0,0-2.518-.06c-1.474-.06-3.009-.121-3.255-.482-.43,0,3.194-.723,2.948-1.265a.471.471,0,0,1,.307-.121c.491-.121,1.044.181,1.6.121.246-.121,0-.482.184-.663.368-.3.614.241.983.542a.227.227,0,0,0,.184.06c.123-.06.247-.3.369-.361a4.07,4.07,0,0,1,2.088.12c.737.181,1.535.542,2.272.784.369.723.8.844,1.228.784a3.8,3.8,0,0,1,1.167.06c.184.12.491.361.368.662.553.6,0-.422.43-.361.184.06.307.121.491.181A15.282,15.282,0,0,1,104.9,40.18c.246.181.43.3.676.482.061-.121-.184-.482-.676-.843a14.492,14.492,0,0,0-2.579-1.627c-.061,0-.061,0-.123-.059a5.766,5.766,0,0,0-2.333-1.205,3.634,3.634,0,0,0-.491-.241c-.43-.181-.983.06-1.412-.361-.615-.483-1.044-.06-1.6-.121a1.152,1.152,0,0,1-.614-.3c-.43.121-.8-.361-1.228-.3a1.644,1.644,0,0,0-.615-.362c-.736-.12-1.473.483-2.21-.422a3.042,3.042,0,0,1-.737.06,22.056,22.056,0,0,0-2.825,0c-.491.482-1.106.06-1.658-.121a4.121,4.121,0,0,1-.859.06,4.612,4.612,0,0,0-2.026.06,1.7,1.7,0,0,1-1.72.6,2.51,2.51,0,0,0-2.15.241c-2.947.06-2.64.662-5.158,1.506-1.228.6-2.211,1.868-3.684,1.687v-.06c1.227-1.687,3.254-1.687,4.728-2.832C77.879,34.517,78.063,35,80.765,34.4c.307-.3.737-.3,1.105-.482.061,0,.061-.06.122-.121a.455.455,0,0,0-.122-.241,6.865,6.865,0,0,0-2.457.06C60.009,38.794,48.219,52.59,46.806,66.447v5.784c1.352,12.832,12.282,24.821,35.064,28.737a37.268,37.268,0,0,0,3.746.542q2.579.362,5.342.542l2.947.181c.8,0,1.658.06,2.457.06.553,0,1.106.059,1.72.059-.614-.361-1.166-.662-1.72-.964-.859-.482-1.658-.964-2.457-1.446-1.044-.6-2.026-1.265-2.947-1.868-1.965-1.265-3.685-2.531-5.342-3.8-1.352-1.084-2.58-2.109-3.746-3.133-17.255-15.663-12.773-30.785,0-37.533a34.819,34.819,0,0,1,3.746-1.627A30.067,30.067,0,0,1,90.959,50.6c.983-.181,1.965-.3,2.947-.422.8-.06,1.658-.121,2.457-.121a34.12,34.12,0,0,1,3.5.06c.86.06,1.658.121,2.457.241.859.121,1.72.241,2.579.421a43.433,43.433,0,0,1,11.361,3.976c.8-.24-1.781-2.892-2.15-3.013M82.73,38.191l-.859.121-2.272.3c.368-.965,1.72.3,1.72-1.085-.184-.12-.676-.12-.737-.361a2.177,2.177,0,0,1,1.289-.24,13.553,13.553,0,0,1,2.211.18c-.43.784-.676.542-1.352,1.084m2.887-.24a4.221,4.221,0,0,0-.86-.121,3.919,3.919,0,0,1,.86-.482,4.063,4.063,0,0,1,3.131-.3l.123.241c-.43.9-1.474.663-2.15.783a2.322,2.322,0,0,1-1.105-.12M104.9,47.469c-.368-.06-.921-.181-.8.421-.615-.06-.615-1.084-1.289-1.084-.184-.06-.307-.121-.491-.181-.8-.18-1.6-.361-2.457-.542-.491-.18-1.044-.361-1.6-.542.061-.482.553-.6.983-.662a1.643,1.643,0,0,0,.614.361,2.588,2.588,0,0,0,.921.121c.553.24,1.044.482,1.535.663.859.3,1.658.542,2.579.9a.06.06,0,0,1,.061.06l.123.421a.229.229,0,0,1-.184.06" transform="translate(-6.461 -4.619)" fill="#20992a"/>
          <path id="Path_110" data-name="Path 110" d="M37.766,57.145C43.906,34.011,24.317,19.793,0,13.647,36.722,45.7-9.027,90.34,63.066,99.015c-4.114-1.264-33.221-12.169-25.3-41.87" transform="translate(0 -1.884)" fill="#8cc42a"/>
        </g>
      </g>
    </g>
  </g>
</svg>
