<svg xmlns="http://www.w3.org/2000/svg" width="30" height="30" viewBox="0 0 30 30">
  <g id="ic-apply" transform="translate(-474 -1521)">
    <g id="journals" transform="translate(476 1522)">
      <path id="Path_117" data-name="Path 117" d="M8,0H22a3.5,3.5,0,0,1,3.5,3.5V21A3.5,3.5,0,0,1,22,24.5,3.5,3.5,0,0,1,18.5,28H4.5A3.5,3.5,0,0,1,1,24.5H2.75A1.75,1.75,0,0,0,4.5,26.25h14a1.75,1.75,0,0,0,1.75-1.75V7A1.75,1.75,0,0,0,18.5,5.25H4.5A1.75,1.75,0,0,0,2.75,7H1A3.5,3.5,0,0,1,4.5,3.5h14A3.5,3.5,0,0,1,22,7V22.75A1.75,1.75,0,0,0,23.75,21V3.5A1.75,1.75,0,0,0,22,1.75H8A1.75,1.75,0,0,0,6.25,3.5H4.5A3.5,3.5,0,0,1,8,0" transform="translate(0.75 0)" fill="#fff"/>
      <path id="Path_118" data-name="Path 118" d="M1.75,6.75V5.875a.875.875,0,0,1,1.75,0V6.75h.875a.875.875,0,0,1,0,1.75H.875a.875.875,0,0,1,0-1.75Zm0,5.25v-.875a.875.875,0,0,1,1.75,0V12h.875a.875.875,0,0,1,0,1.75H.875a.875.875,0,0,1,0-1.75Zm0,4.375v.875H.875a.875.875,0,0,0,0,1.75h3.5a.875.875,0,0,0,0-1.75H3.5v-.875a.875.875,0,0,0-1.75,0" transform="translate(0 3.75)" fill="#fff"/>
    </g>
    <rect id="Rectangle_831" data-name="Rectangle 831" width="30" height="30" transform="translate(474 1521)" fill="none"/>
  </g>
</svg>
