<svg xmlns="http://www.w3.org/2000/svg" width="47.407" height="35.555" viewBox="0 0 47.407 35.555">
  <g id="ic-bar" transform="translate(0 -58.025)">
    <g id="grip-solid-horizontal_1_" transform="translate(0 58.025)">
      <path id="Path_4994" data-name="Path 4994" d="M44.444,354.08H2.963a2.963,2.963,0,1,1,0-5.926H44.444a2.963,2.963,0,1,1,0,5.926Z" transform="translate(0 -318.525)" fill="#2c4a3a"/>
      <path id="Path_4995" data-name="Path 4995" d="M44.444,209.016H2.963a2.963,2.963,0,1,1,0-5.926H44.444a2.963,2.963,0,1,1,0,5.926Z" transform="translate(0 -188.275)" fill="#2c4a3a"/>
      <path id="Path_4996" data-name="Path 4996" d="M44.444,63.951H2.963a2.963,2.963,0,0,1,0-5.926H44.444a2.963,2.963,0,1,1,0,5.926Z" transform="translate(0 -58.025)" fill="#2c4a3a"/>
    </g>
  </g>
</svg>
