<svg xmlns="http://www.w3.org/2000/svg" width="22" height="22" viewBox="0 0 22 22">
  <g id="ic-clear" transform="translate(-5840 148)">
    <path id="x" d="M4.856,4.856a1.214,1.214,0,0,1,1.719,0L13,11.283l6.425-6.427a1.216,1.216,0,0,1,1.719,1.719L14.716,13l6.427,6.425a1.216,1.216,0,0,1-1.719,1.719L13,14.716,6.575,21.143a1.216,1.216,0,1,1-1.719-1.719L11.283,13,4.856,6.575a1.214,1.214,0,0,1,0-1.719" transform="translate(5838.501 -149.499)" fill="#fff"/>
    <rect id="Rectangle_833" data-name="Rectangle 833" width="22" height="22" transform="translate(5840 -148)" fill="none"/>
  </g>
</svg>
