<svg xmlns="http://www.w3.org/2000/svg" width="30" height="30" viewBox="0 0 30 30">
  <g id="ic-find" transform="translate(-1030 -1521)">
    <g id="person-bounding-box" transform="translate(1031 1522)">
      <path id="Path_119" data-name="Path 119" d="M2.625,1.75a.875.875,0,0,0-.875.875v5.25a.875.875,0,1,1-1.75,0V2.625A2.625,2.625,0,0,1,2.625,0h5.25a.875.875,0,0,1,0,1.75ZM19.25.875A.875.875,0,0,1,20.125,0h5.25A2.625,2.625,0,0,1,28,2.625v5.25a.875.875,0,0,1-1.75,0V2.625a.875.875,0,0,0-.875-.875h-5.25A.875.875,0,0,1,19.25.875M.875,19.25a.875.875,0,0,1,.875.875v5.25a.875.875,0,0,0,.875.875h5.25a.875.875,0,0,1,0,1.75H2.625A2.625,2.625,0,0,1,0,25.375v-5.25a.875.875,0,0,1,.875-.875m26.25,0a.875.875,0,0,1,.875.875v5.25A2.625,2.625,0,0,1,25.375,28h-5.25a.875.875,0,0,1,0-1.75h5.25a.875.875,0,0,0,.875-.875v-5.25a.875.875,0,0,1,.875-.875" transform="translate(0 0)" fill="#fff"/>
      <path id="Path_120" data-name="Path 120" d="M3.75,23A1.714,1.714,0,0,1,2,21.25c0-1.75,1.75-7,10.5-7S23,19.5,23,21.25A1.714,1.714,0,0,1,21.25,23Zm14-15.75A5.25,5.25,0,1,1,12.5,2a5.25,5.25,0,0,1,5.25,5.25" transform="translate(1.5 1.5)" fill="#fff"/>
    </g>
    <rect id="Rectangle_833" data-name="Rectangle 833" width="30" height="30" transform="translate(1030 1521)" fill="none"/>
  </g>
</svg>
