<svg xmlns="http://www.w3.org/2000/svg" width="16.764" height="15.414" viewBox="0 0 16.764 15.414">
  <g id="ic-home" transform="translate(-0.499 -1.207)">
    <path id="Path_4985" data-name="Path 4985" d="M9.671,1.534a1.118,1.118,0,0,0-1.58,0L.663,8.961a.559.559,0,1,0,.791.791L8.881,2.324l7.427,7.428a.559.559,0,0,0,.791-.791L14.469,6.332V2.652a.559.559,0,0,0-.559-.559H12.793a.559.559,0,0,0-.559.559V4.1Z" fill="#acac92"/>
    <path id="Path_4986" data-name="Path 4986" d="M8.705,3.293,15.41,10v4.7a1.676,1.676,0,0,1-1.676,1.676H3.676A1.676,1.676,0,0,1,2,14.7V10Z" transform="translate(0.176 0.245)" fill="#acac92"/>
  </g>
</svg>
