<svg xmlns="http://www.w3.org/2000/svg" width="30" height="30" viewBox="0 0 30 30">
  <g id="ic-info" transform="translate(-1015 176)">
    <path id="info-circle-fill_1_" data-name="info-circle-fill (1)" d="M11.353,22.705A11.353,11.353,0,1,0,0,11.353,11.353,11.353,0,0,0,11.353,22.705m1.32-13.356-1.419,6.677c-.1.482.041.756.431.756a1.569,1.569,0,0,0,.973-.349l-.125.59a2.939,2.939,0,0,1-2.079.849c-1,0-1.422-.6-1.147-1.872l1.047-4.921c.091-.416.009-.566-.407-.667l-.64-.115.116-.541,3.25-.407ZM11.353,7.8a1.419,1.419,0,1,1,1.419-1.419A1.419,1.419,0,0,1,11.353,7.8" transform="translate(1019 -172)" fill="#fff"/>
    <rect id="Rectangle_837" data-name="Rectangle 837" width="30" height="30" transform="translate(1015 -176)" fill="none"/>
  </g>
</svg>
