<svg xmlns="http://www.w3.org/2000/svg" xmlns:xlink="http://www.w3.org/1999/xlink" width="30" height="30" viewBox="0 0 30 30">
  <defs>
    <clipPath id="clip-path">
      <rect id="Rectangle_835" data-name="Rectangle 835" width="27.188" height="29" transform="translate(0.295 0.007)" fill="#fff"/>
    </clipPath>
  </defs>
  <g id="ic-news" transform="translate(-694 175)">
    <g id="Group_998" data-name="Group 998" transform="translate(694.705 -175.007)" clip-path="url(#clip-path)">
      <path id="Path_4997" data-name="Path 4997" d="M25.5,9.718C22.95,3.78,18.843-.743,16.765.1c-3.529,1.434,2.1,8.322-15.226,15.366-1.5.608-1.876,3.043-1.25,4.5s2.673,2.9,4.17,2.3c.259-.105,1.21-.411,1.21-.411,1.069,1.434,2.188.583,2.584,1.5.477,1.1,1.514,3.477,1.866,4.287s1.153,1.559,1.733,1.339l3.3-1.257a1.091,1.091,0,0,0,.7-1.489c-.249-.571-1.267-.739-1.558-1.405s-1.24-2.8-1.514-3.477c-.371-.916.417-1.661,1.563-1.78,7.887-.822,9.361,4.049,12.047,2.957,2.078-.845,1.655-6.865-.9-12.8m-.888,9.633c-.462.188-3.566-2.261-5.549-6.877s-1.734-8.835-1.273-9.022,3.488,2.766,5.472,7.381,1.812,8.33,1.35,8.518" transform="translate(0.028 0)" fill="#fff"/>
    </g>
    <rect id="Rectangle_836" data-name="Rectangle 836" width="30" height="30" transform="translate(694 -175)" fill="none"/>
  </g>
</svg>
