<svg xmlns="http://www.w3.org/2000/svg" width="22" height="22" viewBox="0 0 22 22">
  <g id="ic-search-white" transform="translate(-5707 157)">
    <path id="search" d="M16.145,14.222a8.937,8.937,0,1,0-1.921,1.922h0a1.447,1.447,0,0,0,.135.158L19.651,21.6A1.375,1.375,0,0,0,21.6,19.651L16.3,14.358a1.375,1.375,0,0,0-.158-.137ZM16.5,8.936A7.562,7.562,0,1,1,8.938,1.374,7.562,7.562,0,0,1,16.5,8.936" transform="translate(5707.001 -157.002)" fill="#fff"/>
    <rect id="Rectangle_832" data-name="Rectangle 832" width="22" height="22" transform="translate(5707 -157)" fill="none"/>
  </g>
</svg>
