<svg id="ic-unselect" xmlns="http://www.w3.org/2000/svg" width="14" height="14" viewBox="0 0 14 14">
  <path id="Path_4993" data-name="Path 4993" d="M0,0H14V14H0Z" fill="none" opacity="0.87"/>
  <path id="Path_4994" data-name="Path 4994" d="M7.833,2a5.833,5.833,0,1,0,5.833,5.833A5.828,5.828,0,0,0,7.833,2Zm0,10.5A4.667,4.667,0,1,1,12.5,7.833,4.673,4.673,0,0,1,7.833,12.5ZM9.928,4.917,7.833,7.011,5.739,4.917l-.822.822L7.011,7.833,4.917,9.928l.822.823L7.833,8.656,9.928,10.75l.823-.823L8.656,7.833,10.75,5.739Z" transform="translate(-0.833 -0.833)" fill="#41a18a"/>
</svg>
