<svg xmlns="http://www.w3.org/2000/svg" xmlns:xlink="http://www.w3.org/1999/xlink" width="30" height="30" viewBox="0 0 30 30">
  <defs>
    <clipPath id="clip-path">
      <rect id="Rectangle_40" data-name="Rectangle 40" width="28" height="22" transform="translate(0.282 0.108)" fill="#fff"/>
    </clipPath>
  </defs>
  <g id="ic-who" transform="translate(-1369 176)">
    <g id="Group_997" data-name="Group 997" transform="translate(1369.496 -172.486)">
      <g id="Group_18" data-name="Group 18" transform="translate(0.222 0.378)" clip-path="url(#clip-path)">
        <path id="Path_123" data-name="Path 123" d="M26.342,0H2.927A2.936,2.936,0,0,0,0,2.927V20.488a2.936,2.936,0,0,0,2.927,2.927H26.342a2.936,2.936,0,0,0,2.927-2.927V2.927A2.936,2.936,0,0,0,26.342,0m0,20.488H2.927V2.927H26.342ZM13.171,14.781H5.854v2.634h7.317Zm0-4.39H5.854v2.634h7.317Zm0-4.39H5.854V8.634h7.317Zm10.1,9.366s-2.488-.651-2.488-1.929c0-1.218,1.61-1.73,1.61-4.218,0-2.02-.614-3.22-2.634-3.22s-2.634,1.2-2.634,3.22c0,2.488,1.609,3,1.609,4.218,0,1.278-2.487,1.929-2.487,1.929a9.662,9.662,0,0,0-.146,2.049h7.317a9.662,9.662,0,0,0-.146-2.049" transform="translate(-0.352 -0.599)" fill="#fff"/>
      </g>
    </g>
    <rect id="Rectangle_838" data-name="Rectangle 838" width="30" height="30" transform="translate(1369 -176)" fill="none"/>
  </g>
</svg>
