<svg id="logo" xmlns="http://www.w3.org/2000/svg" xmlns:xlink="http://www.w3.org/1999/xlink" width="194.214" height="57.566" viewBox="0 0 194.214 57.566">
  <defs>
    <clipPath id="clip-path">
      <rect id="Rectangle_34" data-name="Rectangle 34" width="194.214" height="57.566" fill="none"/>
    </clipPath>
  </defs>
  <g id="Group_8" data-name="Group 8" clip-path="url(#clip-path)">
    <path id="Path_47" data-name="Path 47" d="M145.881,90.424a2.966,2.966,0,0,1-.344-.786l-1.53-4.566h-.162l-1.519,4.445a3.6,3.6,0,0,1-.349.812.516.516,0,0,1-.327.218l-.058.011v.28h1.54v-.285l-.064-.007a.854.854,0,0,1-.375-.083.334.334,0,0,1-.114-.285,1.416,1.416,0,0,1,.083-.421l.16-.487H144.2l.207.637c.056.174.086.272.092.3a.614.614,0,0,1,.017.135.177.177,0,0,1-.046.134.457.457,0,0,1-.295.071h-.156v.292h2.175v-.285l-.064-.007a.35.35,0,0,1-.249-.121m-2.9-1.6.543-1.6.527,1.6Z" transform="translate(-69.705 -41.881)" fill="#20992a"/>
    <path id="Path_48" data-name="Path 48" d="M154.091,88.66h.18a.354.354,0,0,1,.216.064.3.3,0,0,1,.116.138,1.439,1.439,0,0,1,.03.4v1.1a1.817,1.817,0,0,1-.274.1,1.146,1.146,0,0,1-.293.04,1.037,1.037,0,0,1-.706-.262,1.593,1.593,0,0,1-.438-.841,6.009,6.009,0,0,1-.141-1.373,6.216,6.216,0,0,1,.129-1.261,1.979,1.979,0,0,1,.425-.936.935.935,0,0,1,.731-.324,1.2,1.2,0,0,1,.857.393,2.555,2.555,0,0,1,.6,1.179l.014.053h.241V85.045h-.241l-.014.052a.748.748,0,0,1-.122.286.144.144,0,0,1-.105.059,1.574,1.574,0,0,1-.33-.145,2.524,2.524,0,0,0-.455-.19,2.341,2.341,0,0,0-.582-.067,2.116,2.116,0,0,0-1.732.885,3.407,3.407,0,0,0-.681,2.145,3.536,3.536,0,0,0,.222,1.281,2.733,2.733,0,0,0,.485.8,2.547,2.547,0,0,0,.716.576,2.148,2.148,0,0,0,1.028.222,3.453,3.453,0,0,0,.921-.123,3.576,3.576,0,0,0,.855-.363l.035-.02V89.26a1.3,1.3,0,0,1,.025-.356.33.33,0,0,1,.113-.174.645.645,0,0,1,.289-.07l.065-.006v-.287h-2.185Z" transform="translate(-74.593 -41.865)" fill="#20992a"/>
    <path id="Path_49" data-name="Path 49" d="M163.755,90.655h-.072a.68.68,0,0,1-.352-.057.3.3,0,0,1-.12-.149,2.107,2.107,0,0,1-.037-.54V88.437h.16l1.354,2.511h1.438V90.66l-.066,0a.383.383,0,0,1-.248-.116,2.8,2.8,0,0,1-.271-.436l-.97-1.792a1.317,1.317,0,0,0,.55-.371,1.59,1.59,0,0,0,.35-1.053,1.729,1.729,0,0,0-.233-.907,1.228,1.228,0,0,0-.611-.54,3.318,3.318,0,0,0-1.141-.143h-2.023v.293h.072a.693.693,0,0,1,.353.057.288.288,0,0,1,.119.151,2,2,0,0,1,.038.538v3.575a1.961,1.961,0,0,1-.039.537.3.3,0,0,1-.118.151.672.672,0,0,1-.353.058h-.072v.292h2.293Zm.553-3.761a1.671,1.671,0,0,1-.116.676.658.658,0,0,1-.3.339,1.5,1.5,0,0,1-.613.1h-.1v-2.27h.259a.767.767,0,0,1,.665.272,1.493,1.493,0,0,1,.211.887" transform="translate(-79.487 -41.991)" fill="#20992a"/>
    <path id="Path_50" data-name="Path 50" d="M173.341,90.655h-.212a.376.376,0,0,1-.236-.065.32.32,0,0,1-.115-.15,2.138,2.138,0,0,1-.032-.507V86.31a2.046,2.046,0,0,1,.029-.488.318.318,0,0,1,.1-.162.4.4,0,0,1,.249-.071h.212V85.3H171v.293h.211a.379.379,0,0,1,.237.064.312.312,0,0,1,.113.15,2.152,2.152,0,0,1,.031.507v3.624a1.941,1.941,0,0,1-.031.491.3.3,0,0,1-.1.16.409.409,0,0,1-.251.071H171v.292h2.339Z" transform="translate(-84.184 -41.991)" fill="#20992a"/>
    <path id="Path_51" data-name="Path 51" d="M177.727,90.585a2.155,2.155,0,0,0,1.234.366,1.87,1.87,0,0,0,.93-.226,2.415,2.415,0,0,0,.771-.764v-.715l-.132.2a2.787,2.787,0,0,1-.676.765,1.183,1.183,0,0,1-.685.215.974.974,0,0,1-.735-.289,1.87,1.87,0,0,1-.427-.885,5.933,5.933,0,0,1-.141-1.331,4.454,4.454,0,0,1,.192-1.343,1.653,1.653,0,0,1,.46-.745.989.989,0,0,1,.673-.278,1.059,1.059,0,0,1,.789.376,2.165,2.165,0,0,1,.49,1.11l.011.058h.253V85.048h-.257l-.007.064a.551.551,0,0,1-.08.267.144.144,0,0,1-.115.067,1.1,1.1,0,0,1-.329-.138,2.135,2.135,0,0,0-.968-.259,1.976,1.976,0,0,0-1.178.4,2.746,2.746,0,0,0-.872,1.126,3.725,3.725,0,0,0-.32,1.523,3.634,3.634,0,0,0,.289,1.438,2.337,2.337,0,0,0,.831,1.046" transform="translate(-86.943 -41.869)" fill="#20992a"/>
    <path id="Path_52" data-name="Path 52" d="M189.8,88.45V86.358a1.742,1.742,0,0,1,.038-.448.468.468,0,0,1,.146-.245.39.39,0,0,1,.25-.077h.158v-.293h-1.6v.293h.072a.642.642,0,0,1,.353.08.389.389,0,0,1,.122.186,1.622,1.622,0,0,1,.054.5V88.6a4.344,4.344,0,0,1-.115,1.208,1.14,1.14,0,0,1-.338.523.8.8,0,0,1-.534.184.683.683,0,0,1-.448-.142.807.807,0,0,1-.257-.367,3.523,3.523,0,0,1-.082-.955v-2.7a2.411,2.411,0,0,1,.035-.567.294.294,0,0,1,.106-.15.525.525,0,0,1,.293-.052h.18v-.293h-2.312v.222l.032.072h.072a.535.535,0,0,1,.292.052.293.293,0,0,1,.113.149,2.286,2.286,0,0,1,.037.569v2.7a3.017,3.017,0,0,0,.173,1.12,1.5,1.5,0,0,0,.6.7,1.638,1.638,0,0,0,.881.2,1.507,1.507,0,0,0,1.081-.381,1.665,1.665,0,0,0,.5-.829,7.1,7.1,0,0,0,.1-1.418" transform="translate(-91.531 -41.991)" fill="#20992a"/>
    <path id="Path_53" data-name="Path 53" d="M199.423,88.871h-.262l-.013.056a4.669,4.669,0,0,1-.3.968,1.161,1.161,0,0,1-.362.46.89.89,0,0,1-.516.141h-.35a1.069,1.069,0,0,1-.341-.028.218.218,0,0,1-.111-.132,2.144,2.144,0,0,1-.034-.516V86.31a1.929,1.929,0,0,1,.031-.489.307.307,0,0,1,.1-.161.4.4,0,0,1,.25-.07h.254V85.3h-2.382v.293h.21a.382.382,0,0,1,.237.064.31.31,0,0,1,.113.15,2.161,2.161,0,0,1,.031.507v3.623a1.955,1.955,0,0,1-.031.492.294.294,0,0,1-.1.159.411.411,0,0,1-.251.071h-.21v.292h3.866Z" transform="translate(-96.189 -41.991)" fill="#20992a"/>
    <path id="Path_54" data-name="Path 54" d="M204.639,90.422a.317.317,0,0,1-.1.161.4.4,0,0,1-.249.071h-.212v.293h2.343v-.293h-.211a.387.387,0,0,1-.24-.064.326.326,0,0,1-.115-.151,2.122,2.122,0,0,1-.031-.506V85.754h.241a.752.752,0,0,1,.373.061.871.871,0,0,1,.307.334,2.76,2.76,0,0,1,.213.721l.012.058h.243V85.295h-3.916v1.634h.253l.008-.062a1.725,1.725,0,0,1,.325-.9.686.686,0,0,1,.559-.209h.232v4.178a2.06,2.06,0,0,1-.029.489" transform="translate(-100.08 -41.991)" fill="#20992a"/>
    <path id="Path_55" data-name="Path 55" d="M213.281,90.875a1.631,1.631,0,0,0,.881.2,1.507,1.507,0,0,0,1.082-.382,1.656,1.656,0,0,0,.5-.828,7.181,7.181,0,0,0,.1-1.418V86.358a1.708,1.708,0,0,1,.038-.448.464.464,0,0,1,.147-.244.385.385,0,0,1,.248-.077h.16V85.3h-1.6v.293h.072a.633.633,0,0,1,.352.08.388.388,0,0,1,.123.186,1.661,1.661,0,0,1,.053.5v2.248a4.307,4.307,0,0,1-.115,1.208,1.132,1.132,0,0,1-.338.522.8.8,0,0,1-.534.185.688.688,0,0,1-.446-.143.8.8,0,0,1-.258-.367,3.537,3.537,0,0,1-.081-.955v-2.7a2.426,2.426,0,0,1,.035-.567.286.286,0,0,1,.1-.149.521.521,0,0,1,.294-.053h.18V85.3h-2.312v.222l.032.071h.072a.531.531,0,0,1,.292.052.3.3,0,0,1,.113.149,2.267,2.267,0,0,1,.037.568v2.7a3,3,0,0,0,.172,1.119,1.5,1.5,0,0,0,.6.7" transform="translate(-104.35 -41.991)" fill="#20992a"/>
    <path id="Path_56" data-name="Path 56" d="M223.717,90.655h-.072a.69.69,0,0,1-.353-.057.291.291,0,0,1-.12-.15,2.024,2.024,0,0,1-.038-.539V88.437h.161l1.353,2.511h1.437V90.66l-.067,0a.386.386,0,0,1-.247-.116,2.486,2.486,0,0,1-.271-.436l-.97-1.792a1.326,1.326,0,0,0,.549-.371,1.59,1.59,0,0,0,.351-1.053,1.742,1.742,0,0,0-.233-.907,1.235,1.235,0,0,0-.612-.54,3.356,3.356,0,0,0-1.141-.143h-2.023v.293h.072a.7.7,0,0,1,.353.056.3.3,0,0,1,.119.15,2.072,2.072,0,0,1,.037.539v3.575a2.081,2.081,0,0,1-.037.536.314.314,0,0,1-.118.151.673.673,0,0,1-.354.059h-.072v.292h2.292Zm.553-3.761a1.674,1.674,0,0,1-.115.676.66.66,0,0,1-.3.34,1.5,1.5,0,0,1-.613.1h-.105v-2.27h.26a.768.768,0,0,1,.665.272,1.5,1.5,0,0,1,.21.888" transform="translate(-109.007 -41.991)" fill="#20992a"/>
    <path id="Path_57" data-name="Path 57" d="M234.68,89.055l-.012.056a2.088,2.088,0,0,1-.49,1.053,1.187,1.187,0,0,1-.893.337h-.25a.359.359,0,0,1-.215-.049.258.258,0,0,1-.086-.131,2.706,2.706,0,0,1-.026-.537V88.305a.7.7,0,0,1,.347.089.784.784,0,0,1,.249.371,2.617,2.617,0,0,1,.151.751l.006.065h.256V86.556h-.256l-.005.066a2.413,2.413,0,0,1-.22.942.54.54,0,0,1-.516.292h-.011v-2.1h.362a1.885,1.885,0,0,1,.622.068.873.873,0,0,1,.426.354,2.3,2.3,0,0,1,.242.83l.009.061h.252V85.3h-3.659v.293h.211a.37.37,0,0,1,.273.095.329.329,0,0,1,.093.179,3.589,3.589,0,0,1,.014.447v3.624a2.058,2.058,0,0,1-.029.491.3.3,0,0,1-.1.16.4.4,0,0,1-.25.071h-.211v.292h3.766l.2-1.893Z" transform="translate(-113.703 -41.991)" fill="#20992a"/>
    <path id="Path_58" data-name="Path 58" d="M246.3,90.462a.334.334,0,0,1-.115-.285,1.432,1.432,0,0,1,.083-.421l.16-.487h1.378l.208.637c.055.173.086.27.092.3a.542.542,0,0,1,.017.133.178.178,0,0,1-.044.134.455.455,0,0,1-.3.072h-.157v.292H249.8v-.285l-.064-.007a.356.356,0,0,1-.249-.121,2.851,2.851,0,0,1-.343-.786l-1.531-4.566h-.162l-1.52,4.445a3.594,3.594,0,0,1-.348.812.516.516,0,0,1-.327.218l-.058.011v.28h1.54v-.285l-.064-.007a.861.861,0,0,1-.375-.083m.285-1.636.543-1.6.527,1.6Z" transform="translate(-120.711 -41.881)" fill="#20992a"/>
    <path id="Path_59" data-name="Path 59" d="M255.935,90.511a.874.874,0,0,1-.145-.593V86.668l2.727,4.406h.217V86.416a1.958,1.958,0,0,1,.048-.53.4.4,0,0,1,.118-.2.772.772,0,0,1,.326-.1l.06-.01V85.3h-1.531v.222l.024.071h.072a.447.447,0,0,1,.413.193,1.3,1.3,0,0,1,.1.634v2.112L256.4,85.3h-1.6v.291l.069,0a.494.494,0,0,1,.256.064.887.887,0,0,1,.215.267l.079.11v3.888a1.026,1.026,0,0,1-.121.579.516.516,0,0,1-.427.158H254.8v.291h1.632v-.292h-.17a.451.451,0,0,1-.328-.145" transform="translate(-125.438 -41.991)" fill="#20992a"/>
    <path id="Path_60" data-name="Path 60" d="M268.539,89.228a3.944,3.944,0,0,0,.144-1.09,3.822,3.822,0,0,0-.3-1.535,2.144,2.144,0,0,0-.879-1.029,2.468,2.468,0,0,0-1.247-.278h-1.952v.293h.211a.379.379,0,0,1,.237.064.31.31,0,0,1,.114.15,2.2,2.2,0,0,1,.03.507v3.624a2.28,2.28,0,0,1-.025.489.357.357,0,0,1-.119.172.394.394,0,0,1-.237.06h-.211v.292h1.952a2.689,2.689,0,0,0,.612-.05,2.41,2.41,0,0,0,.744-.309,2,2,0,0,0,.542-.53,2.8,2.8,0,0,0,.379-.83m-1.479.849a.793.793,0,0,1-.728.428.343.343,0,0,1-.2-.049.147.147,0,0,1-.055-.08,1.839,1.839,0,0,1-.021-.4V85.751a1.4,1.4,0,0,1,.632.113,1.232,1.232,0,0,1,.486.638,4.614,4.614,0,0,1,.249,1.668,3.886,3.886,0,0,1-.361,1.906" transform="translate(-130.119 -41.991)" fill="#20992a"/>
    <path id="Path_61" data-name="Path 61" d="M282.531,90.655h-.212a.377.377,0,0,1-.236-.065.318.318,0,0,1-.115-.15,2.14,2.14,0,0,1-.032-.507V88.319h.049a.767.767,0,0,1,.542.23,1.587,1.587,0,0,1,.3.988l.005.066h.247v-2.91h-.246l-.006.065a2.019,2.019,0,0,1-.153.679.663.663,0,0,1-.688.438h-.049v-2.12h.318a2.516,2.516,0,0,1,.665.057.887.887,0,0,1,.478.35,1.71,1.71,0,0,1,.209.79l.005.065h.266V85.3h-3.687v.293h.212a.379.379,0,0,1,.237.064.312.312,0,0,1,.113.15,2.15,2.15,0,0,1,.031.507v3.624a1.96,1.96,0,0,1-.031.491.307.307,0,0,1-.1.16.408.408,0,0,1-.251.071h-.212v.292h2.34Z" transform="translate(-137.938 -41.991)" fill="#20992a"/>
    <path id="Path_62" data-name="Path 62" d="M292.492,85.937a1.91,1.91,0,0,0-1.575-.8c-.038,0-.077,0-.108,0s-.072,0-.108,0a1.873,1.873,0,0,0-1.519.8,3.315,3.315,0,0,0-.651,2.089,3.628,3.628,0,0,0,.5,1.927,2.074,2.074,0,0,0,3.625-.05,3.653,3.653,0,0,0,.477-1.881,3.341,3.341,0,0,0-.641-2.087m-2.33,4.177a4.362,4.362,0,0,1-.37-2.05,5.24,5.24,0,0,1,.24-1.794c.191-.488.455-.726.809-.726a.715.715,0,0,1,.5.2,1.612,1.612,0,0,1,.375.734,6.382,6.382,0,0,1,.152,1.616,5.951,5.951,0,0,1-.149,1.471,1.7,1.7,0,0,1-.405.8.664.664,0,0,1-.482.184.737.737,0,0,1-.674-.436" transform="translate(-142.043 -41.913)" fill="#20992a"/>
    <path id="Path_63" data-name="Path 63" d="M301.06,91a2.009,2.009,0,0,0,1.812-1.092,3.663,3.663,0,0,0,.477-1.881,3.344,3.344,0,0,0-.642-2.087,1.911,1.911,0,0,0-1.576-.8c-.038,0-.076,0-.108,0s-.072,0-.107,0a1.873,1.873,0,0,0-1.519.8,3.319,3.319,0,0,0-.651,2.09,3.625,3.625,0,0,0,.5,1.927A2.027,2.027,0,0,0,301.06,91m-.813-4.727c.19-.488.455-.726.81-.726a.726.726,0,0,1,.5.2,1.617,1.617,0,0,1,.374.734,6.383,6.383,0,0,1,.152,1.616,5.949,5.949,0,0,1-.149,1.471,1.706,1.706,0,0,1-.4.8.667.667,0,0,1-.483.184.739.739,0,0,1-.674-.435,4.376,4.376,0,0,1-.37-2.05,5.242,5.242,0,0,1,.24-1.794" transform="translate(-147.072 -41.913)" fill="#20992a"/>
    <path id="Path_64" data-name="Path 64" d="M312.488,90.058a2.782,2.782,0,0,0,.379-.83,3.945,3.945,0,0,0,.144-1.09,3.822,3.822,0,0,0-.3-1.535,2.144,2.144,0,0,0-.879-1.029,2.469,2.469,0,0,0-1.247-.278h-1.952v.293h.211a.379.379,0,0,1,.237.064.31.31,0,0,1,.114.15,2.206,2.206,0,0,1,.03.507v3.624a2.284,2.284,0,0,1-.025.489.357.357,0,0,1-.119.172.394.394,0,0,1-.237.06h-.211v.292h1.952a2.689,2.689,0,0,0,.612-.05,2.41,2.41,0,0,0,.744-.309,2,2,0,0,0,.542-.53m-1.1.019a.793.793,0,0,1-.728.428.343.343,0,0,1-.2-.049.146.146,0,0,1-.055-.08,1.867,1.867,0,0,1-.021-.4V85.751a1.4,1.4,0,0,1,.632.113,1.232,1.232,0,0,1,.486.638,4.614,4.614,0,0,1,.249,1.668,3.885,3.885,0,0,1-.361,1.906" transform="translate(-151.942 -41.991)" fill="#20992a"/>
    <path id="Path_65" data-name="Path 65" d="M325.191,90.552l-.064-.007a.878.878,0,0,1-.375-.083.336.336,0,0,1-.115-.285,1.431,1.431,0,0,1,.084-.421l.159-.487h1.379l.207.637c.056.174.086.274.091.3a.6.6,0,0,1,.016.135.178.178,0,0,1-.045.134.458.458,0,0,1-.3.071h-.155v.292h2.175v-.285l-.064-.007a.356.356,0,0,1-.249-.121,2.955,2.955,0,0,1-.343-.786l-1.531-4.566H325.9l-1.519,4.445a3.6,3.6,0,0,1-.349.812.517.517,0,0,1-.327.218l-.057.011v.28h1.54Zm-.154-1.726.543-1.6.528,1.6Z" transform="translate(-159.333 -41.881)" fill="#20992a"/>
    <path id="Path_66" data-name="Path 66" d="M334.287,90.153a2.547,2.547,0,0,0,.716.576,2.147,2.147,0,0,0,1.027.222,3.436,3.436,0,0,0,.922-.123,3.579,3.579,0,0,0,.855-.362l.036-.021V89.259a1.418,1.418,0,0,1,.023-.355.341.341,0,0,1,.115-.174.628.628,0,0,1,.288-.071l.065-.006v-.287H336.15v.293h.181a.362.362,0,0,1,.216.063.3.3,0,0,1,.115.138,1.44,1.44,0,0,1,.03.4v1.1a1.694,1.694,0,0,1-.274.1,1.123,1.123,0,0,1-.292.04,1.034,1.034,0,0,1-.705-.262,1.592,1.592,0,0,1-.439-.841,6.047,6.047,0,0,1-.14-1.374,6.139,6.139,0,0,1,.129-1.261,1.985,1.985,0,0,1,.426-.936.933.933,0,0,1,.73-.324,1.2,1.2,0,0,1,.856.393,2.549,2.549,0,0,1,.6,1.178l.014.054h.242V85.044H337.6l-.014.053a.711.711,0,0,1-.122.286.141.141,0,0,1-.1.059,1.582,1.582,0,0,1-.33-.145,2.5,2.5,0,0,0-.455-.19,2.334,2.334,0,0,0-.582-.068,2.116,2.116,0,0,0-1.732.885,3.407,3.407,0,0,0-.68,2.144,3.525,3.525,0,0,0,.222,1.281,2.727,2.727,0,0,0,.485.8" transform="translate(-164.221 -41.865)" fill="#20992a"/>
    <path id="Path_67" data-name="Path 67" d="M347.257,89.055l-.012.056a2.087,2.087,0,0,1-.49,1.053,1.187,1.187,0,0,1-.893.337h-.25a.353.353,0,0,1-.215-.049.259.259,0,0,1-.086-.131,2.7,2.7,0,0,1-.027-.537V88.305a.7.7,0,0,1,.347.089.782.782,0,0,1,.249.371,2.63,2.63,0,0,1,.152.751l.005.065h.256V86.556h-.256l-.005.066a2.431,2.431,0,0,1-.22.942.54.54,0,0,1-.516.292h-.012v-2.1h.362a1.883,1.883,0,0,1,.622.068.874.874,0,0,1,.427.354,2.314,2.314,0,0,1,.242.83l.009.061h.252V85.3h-3.658v.293h.211a.371.371,0,0,1,.274.095.336.336,0,0,1,.093.179,3.835,3.835,0,0,1,.013.447v3.624a2.062,2.062,0,0,1-.029.491.3.3,0,0,1-.1.16.4.4,0,0,1-.25.071h-.211v.292h3.766l.2-1.893Z" transform="translate(-169.125 -41.991)" fill="#20992a"/>
    <path id="Path_68" data-name="Path 68" d="M355.253,85.518l.025.071h.072a.448.448,0,0,1,.413.194,1.3,1.3,0,0,1,.1.633v2.112L353.9,85.3h-1.6v.29l.069,0a.5.5,0,0,1,.256.064.853.853,0,0,1,.215.267l.079.11v3.888a1.026,1.026,0,0,1-.121.579.516.516,0,0,1-.427.158H352.3v.291h1.633v-.292h-.171a.451.451,0,0,1-.328-.145.876.876,0,0,1-.144-.593V86.668l2.727,4.406h.217V86.415a1.954,1.954,0,0,1,.048-.529.407.407,0,0,1,.118-.2.8.8,0,0,1,.326-.1l.06-.01V85.3h-1.531Z" transform="translate(-173.436 -41.991)" fill="#20992a"/>
    <path id="Path_69" data-name="Path 69" d="M366,85.112a.538.538,0,0,1-.08.266.143.143,0,0,1-.115.068,1.1,1.1,0,0,1-.329-.139,2.144,2.144,0,0,0-.968-.259,1.973,1.973,0,0,0-1.178.4,2.743,2.743,0,0,0-.872,1.126,3.729,3.729,0,0,0-.32,1.524,3.645,3.645,0,0,0,.289,1.438,2.336,2.336,0,0,0,.832,1.046,2.156,2.156,0,0,0,1.234.367,1.867,1.867,0,0,0,.93-.227,2.419,2.419,0,0,0,.771-.764v-.715l-.132.2a2.787,2.787,0,0,1-.676.765,1.187,1.187,0,0,1-.686.215.975.975,0,0,1-.735-.289,1.865,1.865,0,0,1-.427-.885,5.9,5.9,0,0,1-.141-1.33,4.457,4.457,0,0,1,.192-1.344,1.66,1.66,0,0,1,.46-.745.994.994,0,0,1,.673-.278,1.062,1.062,0,0,1,.789.375,2.177,2.177,0,0,1,.49,1.111l.011.058h.253V85.048h-.257Z" transform="translate(-178.279 -41.869)" fill="#20992a"/>
    <path id="Path_70" data-name="Path 70" d="M375.871,85.578V85.3h-1.425v.288l.067,0a.548.548,0,0,1,.343.1.17.17,0,0,1,.058.131,2.425,2.425,0,0,1-.275.779l-.688,1.511-.695-1.672a2.732,2.732,0,0,1-.243-.708.136.136,0,0,1,.052-.095.3.3,0,0,1,.205-.049h.161V85.3h-2.156v.292h.071a.367.367,0,0,1,.27.106,3.4,3.4,0,0,1,.4.8L373,88.829v1.1a1.932,1.932,0,0,1-.031.491.308.308,0,0,1-.1.161.393.393,0,0,1-.25.07h-.292v.292h2.5v-.292h-.307a.351.351,0,0,1-.223-.064.313.313,0,0,1-.111-.15,2.351,2.351,0,0,1-.03-.508l-.006-1.3.91-2a4.438,4.438,0,0,1,.476-.911.474.474,0,0,1,.279-.136Z" transform="translate(-182.778 -41.991)" fill="#20992a"/>
    <path id="Path_71" data-name="Path 71" d="M381.056,93.992a.618.618,0,0,0-.514-.3.527.527,0,0,0-.432.231.823.823,0,0,0-.17.514.8.8,0,0,0,.148.48.455.455,0,0,0,.375.216.336.336,0,0,0,.26-.1.147.147,0,0,1,.012.07,1.4,1.4,0,0,1-.154.629,1.189,1.189,0,0,1-.494.5l-.036.021v.326l.1-.039a1.652,1.652,0,0,0,.83-.692,2.06,2.06,0,0,0,.278-1.068,1.349,1.349,0,0,0-.2-.782" transform="translate(-187.044 -46.124)" fill="#20992a"/>
    <path id="Path_72" data-name="Path 72" d="M168.2,105.466,167.071,102h-1.84v.293h.206a.384.384,0,0,1,.238.065.306.306,0,0,1,.115.148,2.117,2.117,0,0,1,.031.5v3.486c0,.241,0,.377-.006.4a.852.852,0,0,1-.088.274.368.368,0,0,1-.154.141.44.44,0,0,1-.208.051h-.134v.292h1.581v-.292h-.072a.53.53,0,0,1-.373-.109.536.536,0,0,1-.154-.291,4.215,4.215,0,0,1-.014-.488v-3.43l1.511,4.61h.178l1.487-4.638v3.624a1.951,1.951,0,0,1-.031.49.324.324,0,0,1-.1.161.407.407,0,0,1-.253.071h-.208v.292h2.336v-.292h-.208a.381.381,0,0,1-.239-.065.307.307,0,0,1-.114-.149,2.205,2.205,0,0,1-.031-.507V103a1.92,1.92,0,0,1,.03-.484.321.321,0,0,1,.1-.158.4.4,0,0,1,.253-.07h.208V102h-1.834Z" transform="translate(-81.343 -50.213)" fill="#20992a"/>
    <path id="Path_73" data-name="Path 73" d="M177.523,102.291h.211a.382.382,0,0,1,.237.064.3.3,0,0,1,.113.15,2.157,2.157,0,0,1,.03.506v3.624a2.009,2.009,0,0,1-.03.491.3.3,0,0,1-.1.16.4.4,0,0,1-.251.071h-.211v.292h2.339v-.292h-.212a.378.378,0,0,1-.236-.065.319.319,0,0,1-.115-.15,2.04,2.04,0,0,1-.033-.506v-3.624a2.044,2.044,0,0,1,.03-.488.327.327,0,0,1,.1-.162.4.4,0,0,1,.25-.07h.212V102h-2.339Z" transform="translate(-87.394 -50.213)" fill="#20992a"/>
    <path id="Path_74" data-name="Path 74" d="M185.764,102.22l.023.071h.072a.448.448,0,0,1,.415.194,1.3,1.3,0,0,1,.1.633v2.112L184.412,102h-1.6v.29l.069,0a.5.5,0,0,1,.257.065.861.861,0,0,1,.214.267l.08.109v3.888a1.009,1.009,0,0,1-.122.579.51.51,0,0,1-.426.158h-.071v.292h1.633v-.292h-.171a.448.448,0,0,1-.328-.145.871.871,0,0,1-.145-.592v-3.25l2.727,4.406h.217v-4.659a2.029,2.029,0,0,1,.048-.529.409.409,0,0,1,.118-.2.8.8,0,0,1,.326-.1l.06-.01V102h-1.531Z" transform="translate(-89.997 -50.213)" fill="#20992a"/>
    <path id="Path_75" data-name="Path 75" d="M192.4,102.291h.211a.382.382,0,0,1,.237.064.307.307,0,0,1,.113.15,2.155,2.155,0,0,1,.03.506v3.624a1.96,1.96,0,0,1-.031.491.293.293,0,0,1-.1.16.406.406,0,0,1-.25.071H192.4v.292h2.339v-.292h-.212a.378.378,0,0,1-.236-.065.322.322,0,0,1-.115-.151,2.089,2.089,0,0,1-.032-.506v-3.624a1.946,1.946,0,0,1,.031-.489.32.32,0,0,1,.1-.161.4.4,0,0,1,.25-.07h.212V102H192.4Z" transform="translate(-94.721 -50.213)" fill="#20992a"/>
    <path id="Path_76" data-name="Path 76" d="M199.97,103.975a6.017,6.017,0,0,1-.662-.467,1.224,1.224,0,0,1-.273-.356.744.744,0,0,1,.11-.76.542.542,0,0,1,.445-.2.932.932,0,0,1,.7.4,2.058,2.058,0,0,1,.425,1.075l.008.062h.264l-.036-1.979h-.225l-.009.06a.819.819,0,0,1-.075.283.077.077,0,0,1-.068.035.624.624,0,0,1-.254-.121,1.783,1.783,0,0,0-.37-.188,1.288,1.288,0,0,0-.42-.069,1.214,1.214,0,0,0-.985.49,1.82,1.82,0,0,0-.384,1.166,1.886,1.886,0,0,0,.14.735,1.961,1.961,0,0,0,.4.6,4.955,4.955,0,0,0,.837.64,3.489,3.489,0,0,1,.557.418,1.062,1.062,0,0,1,.225.326.877.877,0,0,1,.074.35.81.81,0,0,1-.19.532.608.608,0,0,1-.5.222,1.041,1.041,0,0,1-.783-.436,2.65,2.65,0,0,1-.509-1.3l-.01-.06h-.247v2.223h.238l.017-.049a.507.507,0,0,1,.126-.217.2.2,0,0,1,.122-.063.464.464,0,0,1,.21.073,2.518,2.518,0,0,0,.457.205,1.4,1.4,0,0,0,.395.055,1.366,1.366,0,0,0,1.1-.524,1.883,1.883,0,0,0,.426-1.233,1.92,1.92,0,0,0-.264-1,3.23,3.23,0,0,0-1.016-.921" transform="translate(-97.555 -50.091)" fill="#20992a"/>
    <path id="Path_77" data-name="Path 77" d="M205.414,103.632h.253l.008-.063a1.726,1.726,0,0,1,.325-.9.687.687,0,0,1,.561-.209h.232v4.179a2.027,2.027,0,0,1-.03.49.315.315,0,0,1-.1.161.406.406,0,0,1-.25.07H206.2v.292h2.343v-.292h-.212a.384.384,0,0,1-.24-.065.319.319,0,0,1-.114-.15,2.092,2.092,0,0,1-.032-.506v-4.179h.241a.746.746,0,0,1,.373.062.889.889,0,0,1,.307.333,2.763,2.763,0,0,1,.212.721l.012.058h.243V102h-3.915Z" transform="translate(-101.125 -50.213)" fill="#20992a"/>
    <path id="Path_78" data-name="Path 78" d="M218.374,107.241a2.789,2.789,0,0,1-.271-.436l-.969-1.792a1.307,1.307,0,0,0,.549-.372,1.585,1.585,0,0,0,.352-1.053,1.729,1.729,0,0,0-.234-.907,1.23,1.23,0,0,0-.611-.54,3.365,3.365,0,0,0-1.141-.143h-2.023v.293h.072a.7.7,0,0,1,.354.057.292.292,0,0,1,.119.149,2.045,2.045,0,0,1,.038.539v3.575a2.052,2.052,0,0,1-.037.536.313.313,0,0,1-.119.151.677.677,0,0,1-.354.058h-.072v.292h2.292v-.292h-.072a.681.681,0,0,1-.353-.057.3.3,0,0,1-.12-.149,2.044,2.044,0,0,1-.038-.539v-1.473h.16l1.354,2.511h1.437v-.288l-.066,0a.381.381,0,0,1-.247-.116m-2.637-4.8H216a.769.769,0,0,1,.665.272,1.5,1.5,0,0,1,.211.888,1.664,1.664,0,0,1-.116.676.66.66,0,0,1-.3.339,1.492,1.492,0,0,1-.612.1h-.1Z" transform="translate(-105.365 -50.213)" fill="#20992a"/>
    <path id="Path_79" data-name="Path 79" d="M226.157,102.285l.067.005a.549.549,0,0,1,.344.1.168.168,0,0,1,.057.13,2.429,2.429,0,0,1-.276.779l-.687,1.512-.7-1.672a2.741,2.741,0,0,1-.243-.708.136.136,0,0,1,.052-.1.3.3,0,0,1,.205-.049h.161V102h-2.156v.292l.071,0a.367.367,0,0,1,.271.106,3.378,3.378,0,0,1,.4.8l.983,2.333v1.1a1.971,1.971,0,0,1-.03.489.313.313,0,0,1-.1.162.4.4,0,0,1-.249.07h-.292v.293h2.5v-.293h-.307a.346.346,0,0,1-.223-.064.317.317,0,0,1-.111-.149,2.138,2.138,0,0,1-.03-.508l-.007-1.3.911-2a4.4,4.4,0,0,1,.477-.911.469.469,0,0,1,.277-.136l.059-.011V102h-1.425Z" transform="translate(-109.776 -50.213)" fill="#20992a"/>
    <path id="Path_80" data-name="Path 80" d="M241.054,101.841c-.038,0-.077,0-.109,0s-.073,0-.109,0a1.872,1.872,0,0,0-1.518.8,3.316,3.316,0,0,0-.651,2.09,3.63,3.63,0,0,0,.5,1.927,2.074,2.074,0,0,0,3.626-.05,3.655,3.655,0,0,0,.477-1.88,3.342,3.342,0,0,0-.641-2.087,1.909,1.909,0,0,0-1.575-.8m-.756,4.976a4.379,4.379,0,0,1-.369-2.05,5.245,5.245,0,0,1,.239-1.794c.191-.489.456-.727.81-.727a.71.71,0,0,1,.5.2,1.611,1.611,0,0,1,.375.734,6.365,6.365,0,0,1,.152,1.616,5.946,5.946,0,0,1-.149,1.471,1.707,1.707,0,0,1-.4.8.668.668,0,0,1-.483.183.74.74,0,0,1-.674-.435" transform="translate(-117.496 -50.136)" fill="#20992a"/>
    <path id="Path_81" data-name="Path 81" d="M248.676,102.291h.211a.381.381,0,0,1,.236.064.308.308,0,0,1,.113.151,2.122,2.122,0,0,1,.031.505v3.624a1.985,1.985,0,0,1-.031.491.3.3,0,0,1-.1.16.406.406,0,0,1-.25.071h-.211v.292h2.339v-.292H250.8a.377.377,0,0,1-.237-.065.324.324,0,0,1-.115-.15,2.064,2.064,0,0,1-.032-.507v-1.614h.049a.77.77,0,0,1,.543.23,1.591,1.591,0,0,1,.3.988l.005.066h.247V103.4h-.247l-.006.065a2.028,2.028,0,0,1-.152.678.661.661,0,0,1-.689.438h-.049v-2.12h.318a2.491,2.491,0,0,1,.665.058.877.877,0,0,1,.478.349,1.719,1.719,0,0,1,.209.791l.006.066h.266V102h-3.686Z" transform="translate(-122.423 -50.213)" fill="#20992a"/>
    <path id="Path_82" data-name="Path 82" d="M266.007,107.125a2.794,2.794,0,0,1-.343-.785l-1.531-4.567h-.162l-1.519,4.445a3.564,3.564,0,0,1-.349.812.514.514,0,0,1-.327.218l-.058.011v.28h1.54v-.286l-.064-.007a.862.862,0,0,1-.375-.082.337.337,0,0,1-.115-.286,1.436,1.436,0,0,1,.084-.421l.16-.487h1.378l.207.637c.056.174.087.272.092.3a.576.576,0,0,1,.016.134.178.178,0,0,1-.044.135.455.455,0,0,1-.295.071h-.156v.293h2.175v-.286l-.064-.007a.351.351,0,0,1-.249-.121m-2.9-1.6.543-1.6.528,1.6Z" transform="translate(-128.843 -50.103)" fill="#20992a"/>
    <path id="Path_83" data-name="Path 83" d="M274.217,105.362h.18a.358.358,0,0,1,.216.063.31.31,0,0,1,.116.139,1.455,1.455,0,0,1,.03.4v1.1a1.69,1.69,0,0,1-.275.1,1.116,1.116,0,0,1-.292.04,1.041,1.041,0,0,1-.706-.262,1.592,1.592,0,0,1-.438-.841,6.013,6.013,0,0,1-.14-1.373,6.151,6.151,0,0,1,.129-1.262,1.984,1.984,0,0,1,.425-.936.934.934,0,0,1,.73-.324,1.2,1.2,0,0,1,.856.393,2.555,2.555,0,0,1,.6,1.179l.014.053h.242v-2.084h-.242l-.014.053a.732.732,0,0,1-.121.286.147.147,0,0,1-.106.059,1.653,1.653,0,0,1-.33-.145,2.5,2.5,0,0,0-.455-.19,2.318,2.318,0,0,0-.582-.068,2.116,2.116,0,0,0-1.732.885,3.406,3.406,0,0,0-.681,2.145,3.545,3.545,0,0,0,.222,1.281,2.733,2.733,0,0,0,.485.8,2.555,2.555,0,0,0,.717.577,2.145,2.145,0,0,0,1.027.222,3.482,3.482,0,0,0,.922-.122,3.535,3.535,0,0,0,.855-.363l.035-.02v-1.186a1.283,1.283,0,0,1,.025-.355.328.328,0,0,1,.113-.174.63.63,0,0,1,.289-.07l.066-.006v-.287h-2.185Z" transform="translate(-133.731 -50.087)" fill="#20992a"/>
    <path id="Path_84" data-name="Path 84" d="M285.937,107.241a2.511,2.511,0,0,1-.271-.436l-.97-1.792a1.306,1.306,0,0,0,.549-.372,1.583,1.583,0,0,0,.351-1.053,1.742,1.742,0,0,0-.233-.907,1.236,1.236,0,0,0-.612-.54,3.363,3.363,0,0,0-1.141-.144h-2.023v.293h.072a.7.7,0,0,1,.354.057.3.3,0,0,1,.119.15,2.059,2.059,0,0,1,.037.538v3.576a2.04,2.04,0,0,1-.037.536.311.311,0,0,1-.119.15.669.669,0,0,1-.354.058h-.072v.293h2.292v-.293h-.072a.683.683,0,0,1-.353-.057.3.3,0,0,1-.12-.15,2.051,2.051,0,0,1-.038-.538v-1.473h.161l1.353,2.511h1.438v-.288l-.067-.005a.378.378,0,0,1-.247-.116m-2.638-2.533v-2.27h.26a.768.768,0,0,1,.665.272,1.5,1.5,0,0,1,.211.888,1.664,1.664,0,0,1-.116.676.659.659,0,0,1-.3.339,1.48,1.48,0,0,1-.612.1Z" transform="translate(-138.626 -50.213)" fill="#20992a"/>
    <path id="Path_85" data-name="Path 85" d="M291.128,102.291h.211a.383.383,0,0,1,.237.064.305.305,0,0,1,.113.15,2.148,2.148,0,0,1,.031.506v3.624a1.892,1.892,0,0,1-.031.491.3.3,0,0,1-.1.16.406.406,0,0,1-.25.071h-.211v.292h2.339v-.292h-.211a.379.379,0,0,1-.237-.065.323.323,0,0,1-.115-.151,2.083,2.083,0,0,1-.033-.506v-3.624a1.945,1.945,0,0,1,.031-.489.313.313,0,0,1,.1-.161.4.4,0,0,1,.249-.07h.211V102h-2.339Z" transform="translate(-143.322 -50.213)" fill="#20992a"/>
    <path id="Path_86" data-name="Path 86" d="M300.6,101.814a.542.542,0,0,1-.081.267.142.142,0,0,1-.114.067,1.075,1.075,0,0,1-.329-.138,2.135,2.135,0,0,0-.969-.26,1.969,1.969,0,0,0-1.177.4,2.738,2.738,0,0,0-.872,1.125,3.723,3.723,0,0,0-.32,1.524,3.641,3.641,0,0,0,.288,1.438,2.35,2.35,0,0,0,.831,1.046,2.164,2.164,0,0,0,1.235.366,1.855,1.855,0,0,0,.929-.227,2.392,2.392,0,0,0,.771-.763v-.715l-.132.2a2.769,2.769,0,0,1-.676.764,1.183,1.183,0,0,1-.685.215.987.987,0,0,1-.735-.289,1.87,1.87,0,0,1-.428-.885,5.9,5.9,0,0,1-.14-1.331,4.427,4.427,0,0,1,.193-1.344,1.653,1.653,0,0,1,.459-.745.98.98,0,0,1,.674-.278,1.047,1.047,0,0,1,.788.375,2.169,2.169,0,0,1,.49,1.11l.011.058h.253V101.75H300.6Z" transform="translate(-146.081 -50.091)" fill="#20992a"/>
    <path id="Path_87" data-name="Path 87" d="M308.924,102.291H309a.636.636,0,0,1,.353.081.371.371,0,0,1,.122.185,1.653,1.653,0,0,1,.054.5v2.247a4.311,4.311,0,0,1-.115,1.208,1.144,1.144,0,0,1-.337.523.81.81,0,0,1-.535.184.681.681,0,0,1-.447-.143.806.806,0,0,1-.258-.367,3.528,3.528,0,0,1-.081-.956v-2.7a2.44,2.44,0,0,1,.035-.567.3.3,0,0,1,.1-.15.53.53,0,0,1,.294-.053h.18V102h-2.311v.222l.031.071h.072a.536.536,0,0,1,.293.052.3.3,0,0,1,.113.149,2.347,2.347,0,0,1,.036.569v2.7a3,3,0,0,0,.173,1.12,1.5,1.5,0,0,0,.6.7,1.637,1.637,0,0,0,.881.2,1.5,1.5,0,0,0,1.081-.381,1.654,1.654,0,0,0,.5-.828,7.176,7.176,0,0,0,.1-1.417v-2.092a1.766,1.766,0,0,1,.038-.448.456.456,0,0,1,.146-.244.386.386,0,0,1,.249-.078h.158V102h-1.6Z" transform="translate(-150.669 -50.213)" fill="#20992a"/>
    <path id="Path_88" data-name="Path 88" d="M319.274,105.629a4.666,4.666,0,0,1-.3.969,1.168,1.168,0,0,1-.362.46.89.89,0,0,1-.516.141h-.35a1.064,1.064,0,0,1-.341-.028.221.221,0,0,1-.111-.132,2.135,2.135,0,0,1-.034-.516v-3.511a1.929,1.929,0,0,1,.031-.489.317.317,0,0,1,.1-.161.4.4,0,0,1,.25-.07h.254V102h-2.382v.293h.211a.383.383,0,0,1,.237.064.3.3,0,0,1,.114.15,2.25,2.25,0,0,1,.03.506v3.624a2.054,2.054,0,0,1-.03.491.3.3,0,0,1-.1.16.409.409,0,0,1-.251.071h-.211v.292h3.867l.169-2.076h-.261Z" transform="translate(-155.327 -50.213)" fill="#20992a"/>
    <path id="Path_89" data-name="Path 89" d="M323.418,103.632h.253l.008-.063a1.726,1.726,0,0,1,.325-.9.687.687,0,0,1,.56-.209h.232v4.179a1.959,1.959,0,0,1-.031.49.312.312,0,0,1-.1.161.4.4,0,0,1-.25.07H324.2v.292h2.343v-.292h-.212a.382.382,0,0,1-.24-.065.319.319,0,0,1-.114-.15,2.073,2.073,0,0,1-.033-.506v-4.179h.241a.746.746,0,0,1,.373.062.893.893,0,0,1,.307.333,2.765,2.765,0,0,1,.212.721l.012.058h.243V102h-3.915Z" transform="translate(-159.218 -50.213)" fill="#20992a"/>
    <path id="Path_90" data-name="Path 90" d="M334.961,102.291h.072a.633.633,0,0,1,.352.081.372.372,0,0,1,.122.185,1.652,1.652,0,0,1,.054.5v2.247a4.31,4.31,0,0,1-.115,1.208,1.143,1.143,0,0,1-.337.523.81.81,0,0,1-.535.184.682.682,0,0,1-.447-.143.821.821,0,0,1-.258-.367,3.545,3.545,0,0,1-.081-.956v-2.7a2.384,2.384,0,0,1,.035-.567.291.291,0,0,1,.1-.15.53.53,0,0,1,.294-.053h.18V102h-2.311v.222l.031.071h.072a.539.539,0,0,1,.293.052.294.294,0,0,1,.112.149,2.24,2.24,0,0,1,.037.569v2.7a3.015,3.015,0,0,0,.172,1.12,1.5,1.5,0,0,0,.6.7,1.641,1.641,0,0,0,.881.2,1.5,1.5,0,0,0,1.081-.381,1.654,1.654,0,0,0,.5-.828,7.091,7.091,0,0,0,.1-1.417v-2.092a1.747,1.747,0,0,1,.038-.448.456.456,0,0,1,.146-.244.388.388,0,0,1,.249-.078h.158V102h-1.6Z" transform="translate(-163.488 -50.213)" fill="#20992a"/>
    <path id="Path_91" data-name="Path 91" d="M345.9,107.241a2.79,2.79,0,0,1-.271-.436l-.969-1.792a1.307,1.307,0,0,0,.549-.372,1.583,1.583,0,0,0,.351-1.053,1.73,1.73,0,0,0-.233-.907,1.23,1.23,0,0,0-.611-.54,3.365,3.365,0,0,0-1.141-.143h-2.023v.293h.072a.7.7,0,0,1,.354.057.292.292,0,0,1,.119.149,2.044,2.044,0,0,1,.038.539v3.575a2.051,2.051,0,0,1-.037.536.312.312,0,0,1-.119.151.676.676,0,0,1-.354.058h-.072v.292h2.292v-.292h-.072a.681.681,0,0,1-.353-.057.3.3,0,0,1-.12-.149,2.044,2.044,0,0,1-.038-.539v-1.473h.16l1.354,2.511h1.437v-.288l-.066,0a.381.381,0,0,1-.247-.116m-2.638-4.8h.259a.769.769,0,0,1,.665.272,1.5,1.5,0,0,1,.211.888,1.664,1.664,0,0,1-.116.676.66.66,0,0,1-.3.339,1.492,1.492,0,0,1-.612.1h-.1Z" transform="translate(-168.146 -50.213)" fill="#20992a"/>
    <path id="Path_92" data-name="Path 92" d="M354.8,105.813a2.088,2.088,0,0,1-.49,1.053,1.2,1.2,0,0,1-.892.336h-.251a.351.351,0,0,1-.214-.049.25.25,0,0,1-.087-.13,2.76,2.76,0,0,1-.027-.537v-1.479a.694.694,0,0,1,.347.09.779.779,0,0,1,.251.371,2.66,2.66,0,0,1,.151.751l.006.065h.256v-3.026h-.256l-.006.066a2.424,2.424,0,0,1-.22.942.539.539,0,0,1-.516.292h-.012v-2.1h.362a1.882,1.882,0,0,1,.623.068.876.876,0,0,1,.426.354,2.317,2.317,0,0,1,.242.83l.01.061h.251V102h-3.658v.293h.211a.374.374,0,0,1,.274.1.332.332,0,0,1,.092.179,3.429,3.429,0,0,1,.015.446v3.624a1.9,1.9,0,0,1-.031.491.3.3,0,0,1-.1.16.4.4,0,0,1-.25.07h-.211v.292h3.765l.205-1.893h-.254Z" transform="translate(-172.842 -50.213)" fill="#20992a"/>
    <path id="Path_93" data-name="Path 93" d="M182.212,62.566l.608,1.043a13.486,13.486,0,0,1-1.627.968,9.632,9.632,0,0,0,3.376.483l-.4,1.3q-1.08-.106-1.931-.257a10.962,10.962,0,0,1-5.808-3.688H175v2.4q1.52-.212,2.266-.378l.243,1.179a25.671,25.671,0,0,1-5.2.635l-.2-1.195,1.627-.106v-2.54h-1.658a10.562,10.562,0,0,1-.851,3.854l-1.156-.408a11.829,11.829,0,0,0,.836-4.6V58.333a.29.29,0,0,1,.319-.317h12.833v1.134h-11.8q-.152-.014-.152.151v1.98h12.164v1.134h-6.188a10.151,10.151,0,0,0,1.748,1.466,17.983,17.983,0,0,0,2.372-1.315M183.534,53q.168-.014.168.151v4.021a.147.147,0,0,1-.168.167H170.975a.15.15,0,0,1-.152-.167V53.148a.134.134,0,0,1,.152-.151h3.74V51.969h1.262V53h2.569V51.969h1.262V53Zm-8.819,1.013h-2.585q-.061,0-.046.046v.635h2.63Zm0,1.693h-2.63v.559l.046.06h2.585Zm8.773,5.019H173.256V59.709h10.233Zm-4.941-6.712h-2.569v.68h2.569Zm0,1.693h-2.569v.62h2.569Zm1.262-1.013h2.63v-.635l-.061-.046h-2.569Zm0,1.633h2.569l.061-.06V55.7h-2.63Z" transform="translate(-83.729 -25.584)" fill="#008a32"/>
    <path id="Path_94" data-name="Path 94" d="M209.263,66.255H208V63.186a16.845,16.845,0,0,1-6.037,2.343l-.486-1.27a16.3,16.3,0,0,0,6.082-2.177h-5.641V60.888H208v-.862H202.71V58.953H208v-.922h-5.717V56.958h3.421a10.319,10.319,0,0,0-.608-1.406h-3.36V54.358h2.646a8.5,8.5,0,0,0-.928-1.588l1.034-.635a8.379,8.379,0,0,1,1.095,1.874l-.654.348h1.825V51.969h1.2v2.389h1.414V51.969h1.2v2.389h1.505l-.471-.348a11.462,11.462,0,0,0,1.277-1.935l1.034.635a11.2,11.2,0,0,1-1.049,1.648h2.569v1.194h-3.527l-.548,1.406h3.588v1.073h-5.686v.922h5.261v1.074h-5.261v.862h6.051v1.194H209.9a15.971,15.971,0,0,0,5.884,2.328l-.653,1.179a19.331,19.331,0,0,1-5.869-2.54Zm.76-9.3.608-1.406H206.45L207,56.958Z" transform="translate(-99.187 -25.584)" fill="#008a32"/>
    <path id="Path_95" data-name="Path 95" d="M238.7,54.69l1.125.393a28.452,28.452,0,0,1-.9,2.842h1.961v1.194h-7.861V57.925h4.637A18.673,18.673,0,0,0,238.7,54.69m-2.418-2.721H237.6v1.118h2.98v1.194h-7.253V53.087h2.95Zm-1.627,14.18h-1.262V60.48a.174.174,0,0,1,.2-.2H240.1q.273,0,.274.257v5.609H239.11v-.68h-4.455Zm.532-11.383a18.753,18.753,0,0,1,.79,2.54l-1.156.257a18.951,18.951,0,0,0-.775-2.464Zm3.922,9.509v-2.63c0-.111-.06-.167-.182-.167h-4.09c-.132,0-.193.061-.182.182v2.615Zm3.6-10.446V66.3h-1.323V52.619c.01-.151.085-.227.228-.227h4.47l.851.665-1.429,4.58a.469.469,0,0,0,.06.363,9.985,9.985,0,0,1,1.444,2.525,4.366,4.366,0,0,1-.2,3.446,1.979,1.979,0,0,1-.912.786,3.748,3.748,0,0,1-2.722-.317L243.352,63a3.148,3.148,0,0,0,1.946.529q.867-.227.73-1.981a9.264,9.264,0,0,0-1.764-3.4q-.152-.227-.122-.333l1.232-3.976.03-.2H242.9a.161.161,0,0,0-.182.181" transform="translate(-114.719 -25.584)" fill="#008a32"/>
    <path id="Path_96" data-name="Path 96" d="M276.052,62.566l.608,1.043a13.538,13.538,0,0,1-1.628.968,9.633,9.633,0,0,0,3.376.483l-.4,1.3q-1.08-.106-1.93-.257a10.96,10.96,0,0,1-5.808-3.688h-1.43v2.4q1.52-.212,2.266-.378l.243,1.179a25.676,25.676,0,0,1-5.2.635l-.2-1.195,1.628-.106v-2.54h-1.658a10.553,10.553,0,0,1-.851,3.854l-1.156-.408a11.821,11.821,0,0,0,.836-4.6V58.333a.29.29,0,0,1,.319-.317h12.833v1.134h-11.8q-.153-.014-.153.151v1.98H278.12v1.134h-6.188a10.113,10.113,0,0,0,1.749,1.466,17.983,17.983,0,0,0,2.372-1.315M277.374,53c.112-.01.168.041.168.151v4.021a.148.148,0,0,1-.168.167H264.815a.149.149,0,0,1-.151-.167V53.148a.134.134,0,0,1,.151-.151h3.74V51.969h1.262V53h2.569V51.969h1.263V53Zm-8.819,1.013h-2.585q-.06,0-.046.046v.635h2.63Zm0,1.693h-2.63v.559l.046.06h2.585Zm8.773,5.019H267.1V59.709h10.233Zm-4.941-6.712h-2.569v.68h2.569Zm0,1.693h-2.569v.62h2.569Zm1.263-1.013h2.63v-.635l-.061-.046H273.65Zm0,1.633h2.569l.061-.06V55.7h-2.63Z" transform="translate(-129.926 -25.584)" fill="#008a32"/>
    <path id="Path_97" data-name="Path 97" d="M298.4,66.253h-1.2V61.234a18.473,18.473,0,0,1-1.018,2.041L294.96,62.9a13.818,13.818,0,0,0,1.946-4.142h-1.688V57.561h1.977V52.088h1.2v5.473h1.7v1.194h-1.7v.076a27.794,27.794,0,0,1,1.992,2.479l-.943.726L298.4,60.523Zm-2.144-13.228a19.926,19.926,0,0,1,.639,3.552l-1.125.106a20.022,20.022,0,0,0-.623-3.477Zm4.227.2A31.733,31.733,0,0,1,299.7,56.7l-1-.317a22,22,0,0,0,.745-3.4Zm3.71,11.247h-3.5V63.456h3.5v-.65H301a.15.15,0,0,1-.152-.167V58.679a.134.134,0,0,1,.152-.151h7.694q.167-.014.167.151V62.64a.147.147,0,0,1-.167.167h-3.3v.65h3.588v1.013H305.39v.65h4.2v1.073h-9.564V65.119h4.166Zm5.215-6.349h-9.077V57.107H309.4Zm-.9-1.542h-7.45a.149.149,0,0,1-.152-.166v-3.84a.134.134,0,0,1,.152-.151h7.45q.168-.014.168.151v3.84a.147.147,0,0,1-.168.166m-4.318,2.9h-2.1q-.061,0-.046.046v.7h2.144Zm0,1.693h-2.144v.62l.046.06h2.1Zm3.284-7.12v-.635l-.046-.045h-5.276c-.041,0-.056.015-.046.045v.635Zm-5.367.952v.559l.046.06h5.276l.046-.06v-.559Zm3.284,5.215h2.265v-.7l-.046-.046h-2.22Zm0,1.633h2.22l.046-.06v-.62H305.39Z" transform="translate(-145.208 -25.643)" fill="#008a32"/>
    <path id="Path_98" data-name="Path 98" d="M330.4,66.711h-1.262V62.327q-1.218.272-2.266.408l-.456-1.209a33.559,33.559,0,0,0,5.261-1.24h-4.972V59.092h5.869V58.17h-4.288V56.976h4.288v-.922H327.3a.163.163,0,0,1-.168-.181V52.91c.01-.111.066-.167.168-.167h12.65c.122,0,.183.056.183.167v2.963a.161.161,0,0,1-.183.181H333.9v.922h3.467v.68l1.931-1.285.7,1.043-2.767,1.678h3.36v1.194h-5.671l-2.022.847-.168.076h6.249q.425,0,.425.408v5.094h-1.262v-.62H330.4Zm.623-12.9h-2.585q-.061,0-.046.046V54.92l.046.06h2.585Zm7.116,9.327v-.7q0-.166-.183-.166H330.57q-.183,0-.168.166v.7ZM330.4,65.018h7.739v-.8H330.4Zm4.637-11.2h-2.752V54.98h2.752Zm1.444,4.354H333.9v.922h.776Zm-.182-3.19h2.509l.061-.06V53.862l-.061-.046H336.3Z" transform="translate(-160.696 -25.965)" fill="#008a32"/>
    <path id="Path_99" data-name="Path 99" d="M46.137.009A8.452,8.452,0,0,1,55,7.958,8.491,8.491,0,0,1,38.035,8.7a8.4,8.4,0,0,1,8.1-8.694" transform="translate(-18.72 0)" fill="#f38200"/>
    <path id="Path_100" data-name="Path 100" d="M90.148,33.331a7.255,7.255,0,0,1,1.736-.213,1.976,1.976,0,0,1-1.158-.319,1.167,1.167,0,0,1-.579.142c-.361-.036-.687-.142-1.013-.142-.145.532-.47.248-.723.5a3.59,3.59,0,0,0,1.736.036" transform="translate(-43.525 -16.147)" fill="#20992a"/>
    <path id="Path_101" data-name="Path 101" d="M108.39,35.944v-.071l-.977-.745c-.072-.036-.144-.107-.217-.142-.289-.071-.579-.107-.76.177.325.178.651.39.976.533a1.68,1.68,0,0,0,.977.248" transform="translate(-52.399 -17.199)" fill="#20992a"/>
    <path id="Path_102" data-name="Path 102" d="M100.955,33.678a1.018,1.018,0,0,0,.47-.036c.145-.5-.036-.39-.217-.39a.546.546,0,0,1-.253-.036c-.181-.071-.325-.213-.506-.106-.037.177.145.319.253.461a.332.332,0,0,0,.253.107" transform="translate(-49.448 -16.282)" fill="#20992a"/>
    <path id="Path_103" data-name="Path 103" d="M103.762,34.24c.217.071.47.107.543.036l-.037-.107a.318.318,0,0,0-.4-.142c-.037,0-.073-.036-.109-.036-.109-.107-.217-.284-.362-.355.037.319-.253.142-.181.426a3.216,3.216,0,0,0,.543.177" transform="translate(-50.809 -16.559)" fill="#20992a"/>
    <path id="Path_104" data-name="Path 104" d="M98.021,33.216c.036-.213-.073-.248-.181-.319l-.289-.036a3.814,3.814,0,0,0-.47-.142c-.253-.071-.543-.142-.615,0,.036.107-.4.213-.362.32a8.257,8.257,0,0,0,.977.177,2.673,2.673,0,0,0,.94,0" transform="translate(-47.311 -16.067)" fill="#20992a"/>
    <path id="Path_105" data-name="Path 105" d="M101.606,38.951c-.036-.071-.361-.107-.651-.142a1.539,1.539,0,0,0-.507.036c-.036.071.217.142.507.249a6.6,6.6,0,0,0,1.049.248c.036-.071-.362-.284-.4-.39" transform="translate(-49.449 -19.106)" fill="#20992a"/>
    <path id="Path_106" data-name="Path 106" d="M105.368,40.045l.181.319a9.223,9.223,0,0,0,1.338.319.274.274,0,0,0,.181-.036.777.777,0,0,0-.181-.142,2.777,2.777,0,0,0-1.519-.461" transform="translate(-51.872 -19.703)" fill="#20992a"/>
    <path id="Path_107" data-name="Path 107" d="M113.612,42.662a.694.694,0,0,0-.579-.107c-.109.142.109.284.145.426.145.071.289.178.434.248a.752.752,0,0,0,.615.036,3.268,3.268,0,0,0-.615-.6" transform="translate(-55.631 -20.936)" fill="#20992a"/>
    <path id="Path_108" data-name="Path 108" d="M110.287,41.6c-.073.036-.181-.071-.217.107.181.319.362.213.579.248a.379.379,0,0,1,.289.284c.109-.036.326-.071.289-.213-.181-.178-.4-.142-.579-.213a1.361,1.361,0,0,1-.361-.213" transform="translate(-54.187 -20.482)" fill="#20992a"/>
    <path id="Path_109" data-name="Path 109" d="M86.448,44.231c.037.355.326.178.362.5,0,.107-.073.213-.145.177-.217-.213-.47-.106-.687-.284a.772.772,0,0,1-.47-.745c-.181-.071-.47-.426-.615-.071-.181,0-.361-.178-.47-.39a1.706,1.706,0,0,0-.76-.178c-.181,0-.47-.532-.615-.035-.109.071-.253-.071-.326-.213,0-.248-.94-.568-.94-.78.036-.071.109,0,.145-.071-.072-.142-.145-.248-.289-.248-.109-.071-.289-.249-.217-.39a5.4,5.4,0,0,1,1.736.639c.037.071-.036.106-.072.142.289.355.651.319,1.013.426a8.965,8.965,0,0,0,1.628.852c.217-.107-.073-.213-.073-.39.181-.319.325.6.543.425.4.249.072.249.434.249-.723-1.455-.9-.852-1.845-1.881-.4-.071-.579-.639-.832-.994-.253.036-.543-.6-.76-.355-.289.142-.687-.142-.9-.5-.325,0-.325-.426-.615-.355a2.976,2.976,0,0,1-.651-.355c-.145-.107-.253-.248-.4-.355A1.987,1.987,0,0,1,79.5,38.7c-.036,0-.036-.036-.073-.036-.108-.5-.434-.071-.615-.319-.253.071-.506-.107-.76-.177a.731.731,0,0,0-.4-.036A7.555,7.555,0,0,0,76,37.6a3.85,3.85,0,0,1-.615-.142c-.47.177-.217-.852-.723-.568-.036.071-.036.249-.109.249h-.036a.724.724,0,0,1-.217-.319,13.992,13.992,0,0,0-1.483-.036c-.868-.036-1.772-.071-1.917-.284-.253,0,1.881-.426,1.736-.745a.278.278,0,0,1,.181-.071c.289-.071.615.107.94.071.145-.071,0-.284.109-.39.217-.178.361.142.579.319a.134.134,0,0,0,.108.036c.073-.036.145-.178.217-.213a2.4,2.4,0,0,1,1.23.071c.434.107.9.319,1.338.462.217.426.47.5.723.462a2.238,2.238,0,0,1,.687.036c.108.071.289.213.217.39.325.355,0-.248.253-.213.109.036.181.071.289.107a9,9,0,0,1,1.519.6c.145.107.253.177.4.284.036-.071-.109-.284-.4-.5a8.536,8.536,0,0,0-1.519-.959c-.036,0-.036,0-.073-.035a3.4,3.4,0,0,0-1.374-.71,2.14,2.14,0,0,0-.289-.142c-.253-.107-.579.036-.832-.213-.362-.284-.615-.036-.941-.071a.679.679,0,0,1-.361-.178c-.253.071-.47-.213-.723-.177a.968.968,0,0,0-.362-.213c-.434-.071-.868.284-1.3-.248a1.792,1.792,0,0,1-.434.036,12.991,12.991,0,0,0-1.664,0c-.289.284-.651.036-.977-.071a2.427,2.427,0,0,1-.506.036,2.717,2.717,0,0,0-1.194.036,1,1,0,0,1-1.013.355,1.479,1.479,0,0,0-1.266.142c-1.736.036-1.555.39-3.038.887-.723.355-1.3,1.1-2.17.994v-.036c.723-.994,1.917-.994,2.785-1.668,1.338-.887,1.447-.6,3.039-.958.181-.177.434-.177.651-.284.036,0,.036-.036.072-.071a.268.268,0,0,0-.072-.142,4.043,4.043,0,0,0-1.447.036C54.582,36.6,47.638,44.728,46.806,52.89V56.3c.8,7.558,7.234,14.62,20.653,16.926a21.954,21.954,0,0,0,2.206.319q1.519.213,3.147.319l1.736.107c.471,0,.977.036,1.447.036.326,0,.651.035,1.013.035-.361-.213-.687-.39-1.013-.568-.506-.284-.976-.568-1.447-.851-.615-.355-1.194-.745-1.736-1.1-1.158-.745-2.17-1.491-3.147-2.235-.8-.639-1.52-1.242-2.206-1.846-10.164-9.226-7.524-18.133,0-22.107a20.51,20.51,0,0,1,2.206-.958,17.71,17.71,0,0,1,3.147-.816c.579-.107,1.158-.178,1.736-.249.471-.036.977-.071,1.447-.071a20.1,20.1,0,0,1,2.062.036c.507.036.977.071,1.447.142.506.071,1.013.142,1.519.248a25.583,25.583,0,0,1,6.692,2.342c.47-.142-1.049-1.7-1.266-1.774M67.965,36.247l-.506.071-1.338.178c.217-.568,1.013.177,1.013-.639-.109-.071-.4-.071-.434-.213a1.282,1.282,0,0,1,.76-.142,7.983,7.983,0,0,1,1.3.106c-.253.461-.4.319-.8.639m1.7-.142a2.486,2.486,0,0,0-.507-.071,2.308,2.308,0,0,1,.507-.284,2.393,2.393,0,0,1,1.844-.178l.073.142c-.253.532-.868.39-1.266.461a1.367,1.367,0,0,1-.651-.071m11.357,5.607c-.217-.036-.543-.107-.47.248-.362-.036-.362-.639-.76-.639-.109-.036-.181-.071-.289-.107-.47-.106-.94-.213-1.447-.319-.289-.106-.615-.213-.94-.319.036-.284.325-.355.579-.39a.968.968,0,0,0,.361.213,1.525,1.525,0,0,0,.543.071c.325.142.615.284.9.39.506.177.976.319,1.519.532a.035.035,0,0,1,.036.036l.073.248a.135.135,0,0,1-.109.036" transform="translate(-23.043 -16.473)" fill="#20992a"/>
    <path id="Path_110" data-name="Path 110" d="M22.244,39.268c3.617-13.626-7.921-22-22.244-25.621C21.63,32.525-5.317,58.82,37.146,63.93c-2.423-.745-19.568-7.168-14.9-24.662" transform="translate(0 -6.718)" fill="#8cc42a"/>
  </g>
</svg>
